<?xml version="1.0" encoding="UTF-8"?><svg xmlns="http://www.w3.org/2000/svg" xmlns:xlink="http://www.w3.org/1999/xlink" color-interpolation="auto" color-rendering="auto" fill="rgb(0,0,0)" fill-opacity="0" font-family="'Dialog'" font-size="12px" font-style="normal" font-weight="normal" height="275" image-rendering="auto" shape-rendering="auto" stroke="rgb(0,0,0)" stroke-dasharray="none" stroke-dashoffset="0" stroke-linecap="square" stroke-linejoin="miter" stroke-miterlimit="10" stroke-opacity="0" stroke-width="1" text-rendering="auto" viewbox="0 0 531 275" width="531"><!--Generated by the Batik Graphics2D SVG Generator--><defs id="genericDefs"/><g><defs id="defs1"><clipPath clipPathUnits="userSpaceOnUse" id="719f1e6e-9c2a-4cdd-a29f-526acc8849a5"><path d="M-7 -7 L91 -7 L91 51 L-7 51 L-7 -7 Z"/></clipPath><clipPath clipPathUnits="userSpaceOnUse" id="d3bc411a-42d5-428c-bc79-059465d683b5"><path d="M-7 -7 L91 -7 L91 51 L-7 51 L-7 -7 Z"/></clipPath><clipPath clipPathUnits="userSpaceOnUse" id="d0d88dd2-20e5-4173-b29a-ffe28d78b56a"><path d="M-7 -7 L91 -7 L91 51 L-7 51 L-7 -7 Z"/></clipPath><clipPath clipPathUnits="userSpaceOnUse" id="8b149b77-8774-483d-9832-f90648473dc4"><path d="M0 0 L0 25 L80 25 L80 0 Z"/></clipPath><clipPath clipPathUnits="userSpaceOnUse" id="3a75c9f8-872b-49f7-af83-9ccac5ff26d0"><path d="M0 0 L0 15 L80 15 L80 0 Z"/></clipPath><clipPath clipPathUnits="userSpaceOnUse" id="a8bdcc28-bfd4-42e7-b970-5d7f5d08002f"><path d="M-7 -7 L145 -7 L145 64 L-7 64 L-7 -7 Z"/></clipPath><clipPath clipPathUnits="userSpaceOnUse" id="ccd9085c-4305-4137-bc9e-0af7b6380f5f"><path d="M-7 -7 L145 -7 L145 64 L-7 64 L-7 -7 Z"/></clipPath><clipPath clipPathUnits="userSpaceOnUse" id="a3f41171-1fcb-47a0-88ee-3a76c5c2c8ea"><path d="M-7 -7 L145 -7 L145 64 L-7 64 L-7 -7 Z"/></clipPath><clipPath clipPathUnits="userSpaceOnUse" id="3264fc87-3a4b-4f12-9e12-9132ca749d39"><path d="M0 0 L0 38 L134 38 L134 0 Z"/></clipPath><clipPath clipPathUnits="userSpaceOnUse" id="aa5fece7-51bb-4dd9-b7b6-4c9ffcb19c4b"><path d="M0 0 L0 15 L134 15 L134 0 Z"/></clipPath><clipPath clipPathUnits="userSpaceOnUse" id="cad547f9-7d93-4644-be9d-e49d020f34a8"><path d="M-7 -7 L91 -7 L91 51 L-7 51 L-7 -7 Z"/></clipPath><clipPath clipPathUnits="userSpaceOnUse" id="4f94446c-f696-4411-b6d8-d69abb4fdd09"><path d="M-7 -7 L91 -7 L91 51 L-7 51 L-7 -7 Z"/></clipPath><clipPath clipPathUnits="userSpaceOnUse" id="8b4ec36a-db28-455c-820d-df3f034440f5"><path d="M-7 -7 L91 -7 L91 51 L-7 51 L-7 -7 Z"/></clipPath><clipPath clipPathUnits="userSpaceOnUse" id="c6e1e04d-8958-46df-8a65-b880c0d2ef46"><path d="M0 0 L0 25 L80 25 L80 0 Z"/></clipPath><clipPath clipPathUnits="userSpaceOnUse" id="37da577c-41ea-46b6-a3b5-668e86a662e2"><path d="M0 0 L0 15 L80 15 L80 0 Z"/></clipPath><clipPath clipPathUnits="userSpaceOnUse" id="de32be59-c5a8-4465-be1e-5aba2100e44c"><path d="M-7 -7 L91 -7 L91 51 L-7 51 L-7 -7 Z"/></clipPath><clipPath clipPathUnits="userSpaceOnUse" id="d0b34da0-6fa3-4738-829d-286be5c13b32"><path d="M-7 -7 L91 -7 L91 51 L-7 51 L-7 -7 Z"/></clipPath><clipPath clipPathUnits="userSpaceOnUse" id="16bca7b8-e088-4b0d-b75c-e8035fb86313"><path d="M0 0 L0 25 L80 25 L80 0 Z"/></clipPath><clipPath clipPathUnits="userSpaceOnUse" id="f28bb0fb-6ab4-4943-b64c-f136b9ce0d24"><path d="M0 0 L0 15 L80 15 L80 0 Z"/></clipPath><clipPath clipPathUnits="userSpaceOnUse" id="d6ec7a52-bf25-47c0-b4fe-9d3ff3219b9c"><path d="M-7 -7 L91 -7 L91 51 L-7 51 L-7 -7 Z"/></clipPath><clipPath clipPathUnits="userSpaceOnUse" id="f5b9430d-bca4-4736-9782-4c6314dab7ba"><path d="M-7 -7 L91 -7 L91 51 L-7 51 L-7 -7 Z"/></clipPath><clipPath clipPathUnits="userSpaceOnUse" id="ad2480bd-40a3-4c41-90fa-4e2372841aec"><path d="M0 0 L0 25 L80 25 L80 0 Z"/></clipPath><clipPath clipPathUnits="userSpaceOnUse" id="0431e678-3237-4561-9f0c-f73ef4af1860"><path d="M0 0 L0 15 L80 15 L80 0 Z"/></clipPath><clipPath clipPathUnits="userSpaceOnUse" id="525ea314-19ef-4b2f-a1bc-df524cbd67d2"><path d="M-7 -7 L91 -7 L91 51 L-7 51 L-7 -7 Z"/></clipPath><clipPath clipPathUnits="userSpaceOnUse" id="b90f2e05-a83c-4f20-aca6-d3f87d216adb"><path d="M-7 -7 L91 -7 L91 51 L-7 51 L-7 -7 Z"/></clipPath><clipPath clipPathUnits="userSpaceOnUse" id="ad22b414-bab1-4a36-ade5-4cebcadbed6a"><path d="M0 0 L0 25 L80 25 L80 0 Z"/></clipPath><clipPath clipPathUnits="userSpaceOnUse" id="460030a0-c6cf-4f20-a24f-69314107a238"><path d="M0 0 L0 15 L80 15 L80 0 Z"/></clipPath><clipPath clipPathUnits="userSpaceOnUse" id="c3115e71-d1fb-43d4-9637-783b784f81fc"><path d="M-7 -7 L36 -7 L36 27 L-7 27 L-7 -7 Z"/></clipPath><clipPath clipPathUnits="userSpaceOnUse" id="e5e4fb99-b4b8-42b2-80c8-2c1972a88ff9"><path d="M-7 -7 L36 -7 L36 27 L-7 27 L-7 -7 Z"/></clipPath><clipPath clipPathUnits="userSpaceOnUse" id="45f49214-7775-46a9-8d33-9e948171b736"><path d="M0 0 L0 16 L25 16 L25 0 Z"/></clipPath><clipPath clipPathUnits="userSpaceOnUse" id="0df6ec97-866f-4df6-9619-5128a38723d7"><path d="M-7 -7 L51 -7 L51 27 L-7 27 L-7 -7 Z"/></clipPath><clipPath clipPathUnits="userSpaceOnUse" id="3523d2cf-cb5e-42e8-a9e2-3596c8a27c07"><path d="M-7 -7 L51 -7 L51 27 L-7 27 L-7 -7 Z"/></clipPath><clipPath clipPathUnits="userSpaceOnUse" id="c4000599-1949-44cf-8985-08ce7667e80c"><path d="M0 0 L0 16 L40 16 L40 0 Z"/></clipPath><clipPath clipPathUnits="userSpaceOnUse" id="e7734a16-1183-430f-86dd-b35ae74cbf6c"><path d="M-7 -7 L51 -7 L51 27 L-7 27 L-7 -7 Z"/></clipPath><clipPath clipPathUnits="userSpaceOnUse" id="d0aba928-4abd-4ecd-b4a0-b26b53545221"><path d="M0 0 L0 16 L40 16 L40 0 Z"/></clipPath><clipPath clipPathUnits="userSpaceOnUse" id="26470ad5-4b98-4c35-965d-2f4044118d8a"><path d="M-7 -7 L36 -7 L36 27 L-7 27 L-7 -7 Z"/></clipPath><clipPath clipPathUnits="userSpaceOnUse" id="307b62f5-6652-453a-92f2-e9834d1702be"><path d="M-7 -7 L36 -7 L36 27 L-7 27 L-7 -7 Z"/></clipPath><clipPath clipPathUnits="userSpaceOnUse" id="0b64bc48-3abe-44ac-886a-ceb459029f3d"><path d="M0 0 L0 16 L25 16 L25 0 Z"/></clipPath><clipPath clipPathUnits="userSpaceOnUse" id="b8cafa58-75b2-43e7-90ed-604c7cb52882"><path d="M-7 -7 L51 -7 L51 27 L-7 27 L-7 -7 Z"/></clipPath><clipPath clipPathUnits="userSpaceOnUse" id="15589ef9-626f-4434-a965-cdec5154a036"><path d="M-7 -7 L51 -7 L51 27 L-7 27 L-7 -7 Z"/></clipPath><clipPath clipPathUnits="userSpaceOnUse" id="57fbc812-a96a-4b6a-a10a-6f5a2485c7b7"><path d="M0 0 L0 16 L40 16 L40 0 Z"/></clipPath><clipPath clipPathUnits="userSpaceOnUse" id="492a9020-1da0-47ad-891c-9b774c3faa86"><path d="M-7 -7 L36 -7 L36 27 L-7 27 L-7 -7 Z"/></clipPath><clipPath clipPathUnits="userSpaceOnUse" id="6b5313c4-27ed-4e82-b0d3-4157f5c52484"><path d="M-7 -7 L36 -7 L36 27 L-7 27 L-7 -7 Z"/></clipPath><clipPath clipPathUnits="userSpaceOnUse" id="9abc368b-1c12-4d7d-9722-a50f930cd480"><path d="M0 0 L0 16 L25 16 L25 0 Z"/></clipPath><clipPath clipPathUnits="userSpaceOnUse" id="e707dd54-46e9-4a22-be62-11eee13e904e"><path d="M-7 -7 L38 -7 L38 27 L-7 27 L-7 -7 Z"/></clipPath><clipPath clipPathUnits="userSpaceOnUse" id="1176684c-8a4f-470f-b9e7-c29eb9a273cb"><path d="M-7 -7 L38 -7 L38 27 L-7 27 L-7 -7 Z"/></clipPath><clipPath clipPathUnits="userSpaceOnUse" id="74c303e6-5acb-4681-9119-3b604d0faa6b"><path d="M0 0 L0 16 L27 16 L27 0 Z"/></clipPath><clipPath clipPathUnits="userSpaceOnUse" id="65b868e4-5c57-4a1f-8c8e-27e8cd441103"><path d="M-7 -7 L48 -7 L48 27 L-7 27 L-7 -7 Z"/></clipPath><clipPath clipPathUnits="userSpaceOnUse" id="32532729-517e-4b0a-8cd2-357eb556e6d4"><path d="M-7 -7 L48 -7 L48 27 L-7 27 L-7 -7 Z"/></clipPath><clipPath clipPathUnits="userSpaceOnUse" id="1ade813b-6639-4d90-a899-a138b9ac7076"><path d="M0 0 L0 16 L37 16 L37 0 Z"/></clipPath><clipPath clipPathUnits="userSpaceOnUse" id="257ced16-f4b1-41bc-9585-9042cac36d1a"><path d="M-7 -7 L51 -7 L51 27 L-7 27 L-7 -7 Z"/></clipPath><clipPath clipPathUnits="userSpaceOnUse" id="e4d1a0ff-245d-4c4a-bb64-83d8084fcf52"><path d="M-7 -7 L51 -7 L51 27 L-7 27 L-7 -7 Z"/></clipPath><clipPath clipPathUnits="userSpaceOnUse" id="898b42f0-0294-4c94-b6fb-e1a5d0c7361d"><path d="M0 0 L0 16 L40 16 L40 0 Z"/></clipPath><clipPath clipPathUnits="userSpaceOnUse" id="7fe1ba4d-2f20-454c-92c3-388d475603a4"><path d="M-7 -7 L36 -7 L36 27 L-7 27 L-7 -7 Z"/></clipPath><clipPath clipPathUnits="userSpaceOnUse" id="5666ed37-17ff-41e6-a282-65cb092a8253"><path d="M-7 -7 L36 -7 L36 27 L-7 27 L-7 -7 Z"/></clipPath><clipPath clipPathUnits="userSpaceOnUse" id="447f8343-efbc-49e4-a6a2-53e8a0499f4c"><path d="M0 0 L0 16 L25 16 L25 0 Z"/></clipPath><clipPath clipPathUnits="userSpaceOnUse" id="32f664ca-58e9-49d5-b7ea-28a5065c56e9"><path d="M-7 -7 L51 -7 L51 27 L-7 27 L-7 -7 Z"/></clipPath><clipPath clipPathUnits="userSpaceOnUse" id="f7a84e8f-393c-4b8f-aecd-d5c970a493a9"><path d="M-7 -7 L51 -7 L51 27 L-7 27 L-7 -7 Z"/></clipPath><clipPath clipPathUnits="userSpaceOnUse" id="94f417a9-b224-48ad-81c6-a33707e5d1b5"><path d="M0 0 L0 16 L40 16 L40 0 Z"/></clipPath><clipPath clipPathUnits="userSpaceOnUse" id="2f380b0d-14fc-4720-9014-f20c0b5337c7"><path d="M-7 -7 L36 -7 L36 27 L-7 27 L-7 -7 Z"/></clipPath><clipPath clipPathUnits="userSpaceOnUse" id="8d1b96cb-5908-4a51-b262-452706b3411a"><path d="M-7 -7 L36 -7 L36 27 L-7 27 L-7 -7 Z"/></clipPath><clipPath clipPathUnits="userSpaceOnUse" id="28d439fc-710f-42e0-950c-b63dfbb34609"><path d="M0 0 L0 16 L25 16 L25 0 Z"/></clipPath><clipPath clipPathUnits="userSpaceOnUse" id="b3135e1a-c982-42e0-9475-26ba2622f06e"><path d="M-7 -7 L38 -7 L38 27 L-7 27 L-7 -7 Z"/></clipPath><clipPath clipPathUnits="userSpaceOnUse" id="7b81cdd7-ab6e-40de-8937-bf27b4c954ce"><path d="M-7 -7 L38 -7 L38 27 L-7 27 L-7 -7 Z"/></clipPath><clipPath clipPathUnits="userSpaceOnUse" id="d3ee0415-70a8-4da9-bfc1-cf494565fa67"><path d="M0 0 L0 16 L27 16 L27 0 Z"/></clipPath><clipPath clipPathUnits="userSpaceOnUse" id="1224c4ec-1eb0-4357-b931-3f44f2facc4d"><path d="M-7 -7 L48 -7 L48 27 L-7 27 L-7 -7 Z"/></clipPath><clipPath clipPathUnits="userSpaceOnUse" id="ed932389-1a7a-4de4-9417-92d47cef6728"><path d="M-7 -7 L48 -7 L48 27 L-7 27 L-7 -7 Z"/></clipPath><clipPath clipPathUnits="userSpaceOnUse" id="1120ab80-608a-424e-809a-617a50383c8b"><path d="M0 0 L0 16 L37 16 L37 0 Z"/></clipPath><clipPath clipPathUnits="userSpaceOnUse" id="f857464b-608c-422d-b475-8cfc810e5901"><path d="M0 0 L204 0 L204 104 L0 104 L0 0 Z"/></clipPath><clipPath clipPathUnits="userSpaceOnUse" id="8813df3f-9aab-429d-b400-ab3a5bf7fc08"><path d="M137 32 L137 49 L61 49 L61 32 ZM0 0 L0 104 L11 104 L11 96 L56 96 L56 104 L204 104 L204 0 L58 0 L58 4 L11 4 L11 0 Z"/></clipPath><clipPath clipPathUnits="userSpaceOnUse" id="a84a4c3a-30e7-4ab0-a26d-d467c773bf38"><path d="M0 0 L104 0 L104 176 L0 176 L0 0 Z"/></clipPath><clipPath clipPathUnits="userSpaceOnUse" id="ce0c7054-cacd-4557-9ead-3ca1a8366e0e"><path d="M98 75 L98 96 L53 96 L53 75 ZM0 0 L0 176 L104 176 L104 28 L103 28 L103 11 L104 11 L104 0 Z"/></clipPath><clipPath clipPathUnits="userSpaceOnUse" id="a9b049d3-1f9b-4a2a-ae88-60f0680b9284"><path d="M0 0 L230 0 L230 104 L0 104 L0 0 Z"/></clipPath><clipPath clipPathUnits="userSpaceOnUse" id="6402ba75-7a3d-4c1b-8f68-4611e2a678c9"><path d="M140 51 L140 71 L86 71 L86 51 ZM0 0 L0 104 L230 104 L230 8 L220 8 L220 0 L56 0 L56 3 L11 3 L11 0 Z"/></clipPath><clipPath clipPathUnits="userSpaceOnUse" id="6b1f789c-57c7-4329-8ab7-2cadd3a0cd29"><path d="M0 0 L104 0 L104 176 L0 176 L0 0 Z"/></clipPath><clipPath clipPathUnits="userSpaceOnUse" id="3ef06ad0-32d9-4c27-a02c-39e6a8c1e91a"><path d="M100 77 L100 97 L53 97 L53 77 ZM0 0 L0 176 L104 176 L104 142 L103 142 L103 125 L104 125 L104 0 Z"/></clipPath><clipPath clipPathUnits="userSpaceOnUse" id="f9cb6c47-07dc-45d3-9fef-9f9ca8bffdc9"><path d="M0 0 L250 0 L250 173 L0 173 L0 0 Z"/></clipPath><clipPath clipPathUnits="userSpaceOnUse" id="1b2d3714-676c-4c57-8831-a1b1b727edb5"><path d="M147 22 L147 39 L83 39 L83 22 ZM0 0 L0 173 L250 173 L250 0 Z"/></clipPath><clipPath clipPathUnits="userSpaceOnUse" id="c712a795-b6ab-4ac2-a54b-3e1fbbc3f922"><path d="M0 0 L272 0 L272 191 L0 191 L0 0 Z"/></clipPath><clipPath clipPathUnits="userSpaceOnUse" id="f6b2e49e-1845-464b-8df2-4f2d21e79ce7"><path d="M182 33 L182 50 L105 50 L105 33 ZM58 98 L58 118 L11 118 L11 98 ZM137 146 L137 163 L61 163 L61 146 ZM0 0 L0 191 L272 191 L272 0 Z"/></clipPath><clipPath clipPathUnits="userSpaceOnUse" id="85b88ada-c305-4291-86d6-38cb597083dd"><path d="M0 0 L104 0 L104 168 L0 168 L0 0 Z"/></clipPath><clipPath clipPathUnits="userSpaceOnUse" id="cf99ed25-1020-4ba8-8a33-c4ea0d3beb4f"><path d="M0 0 L0 168 L104 168 L104 95 L52 95 L52 74 L104 74 L104 0 Z"/></clipPath><clipPath clipPathUnits="userSpaceOnUse" id="08732db5-7341-4ca3-b79f-4c8063f70fbe"><path d="M0 0 L273 0 L273 197 L0 197 L0 0 Z"/></clipPath><clipPath clipPathUnits="userSpaceOnUse" id="62fb6ce4-ab1c-426a-b06f-f233120aed4e"><path d="M168 124 L168 141 L88 141 L88 124 ZM0 0 L0 197 L273 197 L273 96 L262 96 L262 75 L273 75 L273 0 Z"/></clipPath><clipPath clipPathUnits="userSpaceOnUse" id="386f73df-d0e7-4c30-b30c-6d39ee584372"><path d="M-80 -17 L160 -17 L160 34 L-80 34 L-80 -17 Z"/></clipPath><clipPath clipPathUnits="userSpaceOnUse" id="9f1ade77-1568-4fa6-8ad6-03252270ab99"><path d="M-90 -17 L150 -17 L150 34 L-90 34 L-90 -17 Z"/></clipPath><clipPath clipPathUnits="userSpaceOnUse" id="3277e142-5194-4c1f-90c8-c2be4fc3565d"><path d="M-52 -21 L104 -21 L104 42 L-52 42 L-52 -21 Z"/></clipPath><clipPath clipPathUnits="userSpaceOnUse" id="4929b09b-3a28-4312-a702-b36d664b887c"><path d="M-51 -23 L105 -23 L105 40 L-51 40 L-51 -23 Z"/></clipPath><clipPath clipPathUnits="userSpaceOnUse" id="a58e7b35-5bf9-47ae-aba7-5dc268b13937"><path d="M-77 -17 L154 -17 L154 34 L-77 34 L-77 -17 Z"/></clipPath><clipPath clipPathUnits="userSpaceOnUse" id="5130f1c3-c426-43fd-907f-b3262aba5948"><path d="M-87 -17 L144 -17 L144 34 L-87 34 L-87 -17 Z"/></clipPath><clipPath clipPathUnits="userSpaceOnUse" id="97ee041d-38de-48c1-951c-db1bee1ecdde"><path d="M-64 -17 L128 -17 L128 34 L-64 34 L-64 -17 Z"/></clipPath><clipPath clipPathUnits="userSpaceOnUse" id="66ed9d90-ae6e-4825-a091-d68ab132b45e"><path d="M-75 -17 L117 -17 L117 34 L-75 34 L-75 -17 Z"/></clipPath><clipPath clipPathUnits="userSpaceOnUse" id="b387eb16-9a40-4e2f-a4f5-bf3d6c3edd78"><path d="M-47 -20 L94 -20 L94 40 L-47 40 L-47 -20 Z"/></clipPath><clipPath clipPathUnits="userSpaceOnUse" id="7358d854-4789-43c9-930f-18595b55e00d"><path d="M-45 -22 L96 -22 L96 38 L-45 38 L-45 -22 Z"/></clipPath><clipPath clipPathUnits="userSpaceOnUse" id="33875ec2-4f10-4102-a9db-e4f41b981f9a"><path d="M-54 -20 L108 -20 L108 40 L-54 40 L-54 -20 Z"/></clipPath><clipPath clipPathUnits="userSpaceOnUse" id="212d74da-2eae-4e67-b4d2-6b15ed152e60"><path d="M-58 -22 L104 -22 L104 38 L-58 38 L-58 -22 Z"/></clipPath><clipPath clipPathUnits="userSpaceOnUse" id="a091fca2-6e4f-42a3-a20c-19353a15dd04"><path d="M-45 -21 L90 -21 L90 42 L-45 42 L-45 -21 Z"/></clipPath><clipPath clipPathUnits="userSpaceOnUse" id="f9ead62f-3b90-4429-a586-b425d6c028a5"><path d="M-45 -23 L90 -23 L90 40 L-45 40 L-45 -23 Z"/></clipPath><clipPath clipPathUnits="userSpaceOnUse" id="c63703f1-718c-4b78-9ba1-1bde52ed7432"><path d="M-76 -17 L152 -17 L152 34 L-76 34 L-76 -17 Z"/></clipPath><clipPath clipPathUnits="userSpaceOnUse" id="c6a6de35-a897-4776-a381-d07cd279f8a8"><path d="M-87 -17 L141 -17 L141 34 L-87 34 L-87 -17 Z"/></clipPath></defs><g fill="white" fill-opacity="1" stroke="white" stroke-opacity="1" text-rendering="geometricPrecision"><rect height="275" stroke="none" width="531" x="0" y="0"/></g><g data="{&quot;name&quot;:&quot;Pedido&quot;,&quot;modelType&quot;:&quot;Class&quot;}" hyper="" model-id="shape-ffnp4vmGAqACZBGx" style="pointer-events: auto; cursor: pointer;"><g fill="rgb(122,207,245)" fill-opacity="1" font-family="sans-serif" font-size="11px" font-weight="bold" image-rendering="optimizeQuality" stroke="rgb(122,207,245)" stroke-opacity="1" text-rendering="geometricPrecision" transform="translate(211,116)"><rect clip-path="url(#d3bc411a-42d5-428c-bc79-059465d683b5)" height="40" stroke="none" width="80" x="0" y="0"/></g><g fill="black" fill-opacity="1" font-family="sans-serif" font-size="11px" font-weight="bold" image-rendering="optimizeQuality" stroke="black" stroke-linecap="butt" stroke-linejoin="round" stroke-miterlimit="0" stroke-opacity="1" text-rendering="geometricPrecision" transform="translate(211,116)"><rect clip-path="url(#d3bc411a-42d5-428c-bc79-059465d683b5)" fill="none" height="40" width="80" x="0" y="0"/><line clip-path="url(#d3bc411a-42d5-428c-bc79-059465d683b5)" fill="none" x1="0" x2="80" y1="15" y2="15"/></g></g><g fill="black" fill-opacity="1" font-family="sans-serif" font-size="11px" font-weight="bold" image-rendering="optimizeQuality" stroke="black" stroke-opacity="1" text-rendering="geometricPrecision" transform="translate(211,116)"><text clip-path="url(#3a75c9f8-872b-49f7-af83-9ccac5ff26d0)" stroke="none" x="21" xml:space="preserve" y="12">Pedido</text></g><g data="{&quot;name&quot;:&quot;Produto&quot;,&quot;modelType&quot;:&quot;Class&quot;}" hyper="" model-id="shape-zD2eEvmGAqACZAd4" style="pointer-events: auto; cursor: pointer;"><g fill="rgb(122,207,245)" fill-opacity="1" font-family="sans-serif" font-size="11px" font-weight="bold" image-rendering="optimizeQuality" stroke="rgb(122,207,245)" stroke-opacity="1" text-rendering="geometricPrecision" transform="translate(393,110)"><rect clip-path="url(#ccd9085c-4305-4137-bc9e-0af7b6380f5f)" height="53" stroke="none" width="134" x="0" y="0"/></g><g fill="black" fill-opacity="1" font-family="sans-serif" font-size="11px" font-weight="bold" image-rendering="optimizeQuality" stroke="black" stroke-linecap="butt" stroke-linejoin="round" stroke-miterlimit="0" stroke-opacity="1" text-rendering="geometricPrecision" transform="translate(393,110)"><rect clip-path="url(#ccd9085c-4305-4137-bc9e-0af7b6380f5f)" fill="none" height="53" width="134" x="0" y="0"/><line clip-path="url(#ccd9085c-4305-4137-bc9e-0af7b6380f5f)" fill="none" x1="0" x2="134" y1="15" y2="15"/></g></g><g fill="black" fill-opacity="1" font-family="sans-serif" font-size="11px" image-rendering="optimizeQuality" stroke="black" stroke-opacity="1" text-rendering="geometricPrecision" transform="matrix(1,0,0,1,393,125)"><text clip-path="url(#3264fc87-3a4b-4f12-9e12-9132ca749d39)" stroke="none" x="2" xml:space="preserve" y="14"> preço</text></g><g fill="black" fill-opacity="1" font-family="sans-serif" font-size="11px" image-rendering="optimizeQuality" stroke="black" stroke-opacity="1" text-rendering="geometricPrecision" transform="matrix(1,0,0,1,393,125)"><text clip-path="url(#3264fc87-3a4b-4f12-9e12-9132ca749d39)" stroke="none" x="2" xml:space="preserve" y="29"> estimativa de preparação</text></g><g fill="black" fill-opacity="1" font-family="sans-serif" font-size="11px" font-weight="bold" image-rendering="optimizeQuality" stroke="black" stroke-opacity="1" text-rendering="geometricPrecision" transform="translate(393,110)"><text clip-path="url(#aa5fece7-51bb-4dd9-b7b6-4c9ffcb19c4b)" stroke="none" x="45" xml:space="preserve" y="12">Produto</text></g><g data="{&quot;name&quot;:&quot;Funcionário&quot;,&quot;modelType&quot;:&quot;Class&quot;}" hyper="" model-id="shape-CsBeEvmGAqACZAeT" style="pointer-events: auto; cursor: pointer;"><g fill="rgb(122,207,245)" fill-opacity="1" font-family="sans-serif" font-size="11px" font-weight="bold" image-rendering="optimizeQuality" stroke="rgb(122,207,245)" stroke-opacity="1" text-rendering="geometricPrecision" transform="translate(211,2)"><rect clip-path="url(#4f94446c-f696-4411-b6d8-d69abb4fdd09)" height="40" stroke="none" width="80" x="0" y="0"/></g><g fill="black" fill-opacity="1" font-family="sans-serif" font-size="11px" font-weight="bold" image-rendering="optimizeQuality" stroke="black" stroke-linecap="butt" stroke-linejoin="round" stroke-miterlimit="0" stroke-opacity="1" text-rendering="geometricPrecision" transform="translate(211,2)"><rect clip-path="url(#4f94446c-f696-4411-b6d8-d69abb4fdd09)" fill="none" height="40" width="80" x="0" y="0"/><line clip-path="url(#4f94446c-f696-4411-b6d8-d69abb4fdd09)" fill="none" x1="0" x2="80" y1="15" y2="15"/></g></g><g fill="black" fill-opacity="1" font-family="sans-serif" font-size="11px" font-weight="bold" image-rendering="optimizeQuality" stroke="black" stroke-opacity="1" text-rendering="geometricPrecision" transform="translate(211,2)"><text clip-path="url(#37da577c-41ea-46b6-a3b5-668e86a662e2)" stroke="none" x="8" xml:space="preserve" y="12">Funcionário</text></g><g data="{&quot;name&quot;:&quot;Gestor&quot;,&quot;modelType&quot;:&quot;Class&quot;}" hyper="" model-id="shape-AYpeEvmGAqACZAee" style="pointer-events: auto; cursor: pointer;"><g fill="rgb(122,207,245)" fill-opacity="1" font-family="sans-serif" font-size="11px" font-weight="bold" image-rendering="optimizeQuality" stroke="rgb(122,207,245)" stroke-opacity="1" text-rendering="geometricPrecision" transform="translate(2,116)"><rect clip-path="url(#de32be59-c5a8-4465-be1e-5aba2100e44c)" height="40" stroke="none" width="80" x="0" y="0"/></g><g fill="black" fill-opacity="1" font-family="sans-serif" font-size="11px" font-weight="bold" image-rendering="optimizeQuality" stroke="black" stroke-linecap="butt" stroke-linejoin="round" stroke-miterlimit="0" stroke-opacity="1" text-rendering="geometricPrecision" transform="translate(2,116)"><rect clip-path="url(#de32be59-c5a8-4465-be1e-5aba2100e44c)" fill="none" height="40" width="80" x="0" y="0"/><line clip-path="url(#de32be59-c5a8-4465-be1e-5aba2100e44c)" fill="none" x1="0" x2="80" y1="15" y2="15"/></g></g><g fill="black" fill-opacity="1" font-family="sans-serif" font-size="11px" font-weight="bold" image-rendering="optimizeQuality" stroke="black" stroke-opacity="1" text-rendering="geometricPrecision" transform="translate(2,116)"><text clip-path="url(#f28bb0fb-6ab4-4943-b64c-f136b9ce0d24)" stroke="none" x="21" xml:space="preserve" y="12">Gestor</text></g><g data="{&quot;name&quot;:&quot;Informação&quot;,&quot;modelType&quot;:&quot;Class&quot;}" hyper="" model-id="shape-h1leEvmGAqACZAe1" style="pointer-events: auto; cursor: pointer;"><g fill="rgb(122,207,245)" fill-opacity="1" font-family="sans-serif" font-size="11px" font-weight="bold" image-rendering="optimizeQuality" stroke="rgb(122,207,245)" stroke-opacity="1" text-rendering="geometricPrecision" transform="translate(211,230)"><rect clip-path="url(#d6ec7a52-bf25-47c0-b4fe-9d3ff3219b9c)" height="40" stroke="none" width="80" x="0" y="0"/></g><g fill="black" fill-opacity="1" font-family="sans-serif" font-size="11px" font-weight="bold" image-rendering="optimizeQuality" stroke="black" stroke-linecap="butt" stroke-linejoin="round" stroke-miterlimit="0" stroke-opacity="1" text-rendering="geometricPrecision" transform="translate(211,230)"><rect clip-path="url(#d6ec7a52-bf25-47c0-b4fe-9d3ff3219b9c)" fill="none" height="40" width="80" x="0" y="0"/><line clip-path="url(#d6ec7a52-bf25-47c0-b4fe-9d3ff3219b9c)" fill="none" x1="0" x2="80" y1="15" y2="15"/></g></g><g fill="black" fill-opacity="1" font-family="sans-serif" font-size="11px" font-weight="bold" image-rendering="optimizeQuality" stroke="black" stroke-opacity="1" text-rendering="geometricPrecision" transform="translate(211,230)"><text clip-path="url(#0431e678-3237-4561-9f0c-f73ef4af1860)" stroke="none" x="9" xml:space="preserve" y="12">Informação</text></g><g data="{&quot;name&quot;:&quot;Ingrediente&quot;,&quot;modelType&quot;:&quot;Class&quot;}" hyper="" model-id="shape-RxNeEvmGAqACZAfA" style="pointer-events: auto; cursor: pointer;"><g fill="rgb(122,207,245)" fill-opacity="1" font-family="sans-serif" font-size="11px" font-weight="bold" image-rendering="optimizeQuality" stroke="rgb(122,207,245)" stroke-opacity="1" text-rendering="geometricPrecision" transform="translate(420,230)"><rect clip-path="url(#525ea314-19ef-4b2f-a1bc-df524cbd67d2)" height="40" stroke="none" width="80" x="0" y="0"/></g><g fill="black" fill-opacity="1" font-family="sans-serif" font-size="11px" font-weight="bold" image-rendering="optimizeQuality" stroke="black" stroke-linecap="butt" stroke-linejoin="round" stroke-miterlimit="0" stroke-opacity="1" text-rendering="geometricPrecision" transform="translate(420,230)"><rect clip-path="url(#525ea314-19ef-4b2f-a1bc-df524cbd67d2)" fill="none" height="40" width="80" x="0" y="0"/><line clip-path="url(#525ea314-19ef-4b2f-a1bc-df524cbd67d2)" fill="none" x1="0" x2="80" y1="15" y2="15"/></g></g><g fill="black" fill-opacity="1" font-family="sans-serif" font-size="11px" font-weight="bold" image-rendering="optimizeQuality" stroke="black" stroke-opacity="1" text-rendering="geometricPrecision" transform="translate(420,230)"><text clip-path="url(#460030a0-c6cf-4f20-a24f-69314107a238)" stroke="none" x="9" xml:space="preserve" y="12">Ingrediente</text></g><g fill="black" fill-opacity="1" font-family="sans-serif" font-size="11px" image-rendering="optimizeQuality" stroke="black" stroke-opacity="1" text-rendering="geometricPrecision" transform="translate(225,100)"><text clip-path="url(#45f49214-7775-46a9-8d33-9e948171b736)" stroke="none" x="10" xml:space="preserve" y="12">*</text></g><g fill="black" fill-opacity="1" font-family="sans-serif" font-size="11px" image-rendering="optimizeQuality" stroke="black" stroke-opacity="1" text-rendering="geometricPrecision" transform="translate(251,43)"><text clip-path="url(#c4000599-1949-44cf-8985-08ce7667e80c)" stroke="none" x="10" xml:space="preserve" y="12">0..1</text></g><g fill="black" fill-opacity="1" font-family="sans-serif" font-size="11px" image-rendering="optimizeQuality" stroke="black" stroke-opacity="1" text-rendering="geometricPrecision" transform="translate(293,233)"><text clip-path="url(#d0aba928-4abd-4ecd-b4a0-b26b53545221)" stroke="none" x="10" xml:space="preserve" y="12">0..1</text></g><g fill="black" fill-opacity="1" font-family="sans-serif" font-size="11px" image-rendering="optimizeQuality" stroke="black" stroke-opacity="1" text-rendering="geometricPrecision" transform="translate(394,250)"><text clip-path="url(#0b64bc48-3abe-44ac-886a-ceb459029f3d)" stroke="none" x="10" xml:space="preserve" y="12">*</text></g><g fill="black" fill-opacity="1" font-family="sans-serif" font-size="11px" image-rendering="optimizeQuality" stroke="black" stroke-opacity="1" text-rendering="geometricPrecision" transform="translate(211,213)"><text clip-path="url(#57fbc812-a96a-4b6a-a10a-6f5a2485c7b7)" stroke="none" x="10" xml:space="preserve" y="12">0..1</text></g><g fill="black" fill-opacity="1" font-family="sans-serif" font-size="11px" image-rendering="optimizeQuality" stroke="black" stroke-opacity="1" text-rendering="geometricPrecision" transform="translate(251,157)"><text clip-path="url(#9abc368b-1c12-4d7d-9722-a50f930cd480)" stroke="none" x="10" xml:space="preserve" y="12">*</text></g><g fill="black" fill-opacity="1" font-family="sans-serif" font-size="11px" image-rendering="optimizeQuality" stroke="black" stroke-opacity="1" text-rendering="geometricPrecision" transform="translate(293,120)"><text clip-path="url(#74c303e6-5acb-4681-9119-3b604d0faa6b)" stroke="none" x="10" xml:space="preserve" y="12">1</text></g><g fill="black" fill-opacity="1" font-family="sans-serif" font-size="11px" image-rendering="optimizeQuality" stroke="black" stroke-opacity="1" text-rendering="geometricPrecision" transform="translate(355,137)"><text clip-path="url(#1ade813b-6639-4d90-a899-a138b9ac7076)" stroke="none" x="10" xml:space="preserve" y="12">1..*</text></g><g fill="black" fill-opacity="1" font-family="sans-serif" font-size="11px" image-rendering="optimizeQuality" stroke="black" stroke-opacity="1" text-rendering="geometricPrecision" transform="translate(293,6)"><text clip-path="url(#898b42f0-0294-4c94-b6fb-e1a5d0c7361d)" stroke="none" x="10" xml:space="preserve" y="12">0..1</text></g><g fill="black" fill-opacity="1" font-family="sans-serif" font-size="11px" image-rendering="optimizeQuality" stroke="black" stroke-opacity="1" text-rendering="geometricPrecision" transform="translate(434,93)"><text clip-path="url(#447f8343-efbc-49e4-a6a2-53e8a0499f4c)" stroke="none" x="10" xml:space="preserve" y="12">*</text></g><g fill="black" fill-opacity="1" font-family="sans-serif" font-size="11px" image-rendering="optimizeQuality" stroke="black" stroke-opacity="1" text-rendering="geometricPrecision" transform="translate(41,157)"><text clip-path="url(#94f417a9-b224-48ad-81c6-a33707e5d1b5)" stroke="none" x="10" xml:space="preserve" y="12">0..1</text></g><g fill="black" fill-opacity="1" font-family="sans-serif" font-size="11px" image-rendering="optimizeQuality" stroke="black" stroke-opacity="1" text-rendering="geometricPrecision" transform="translate(185,250)"><text clip-path="url(#28d439fc-710f-42e0-950c-b63dfbb34609)" stroke="none" x="10" xml:space="preserve" y="12">*</text></g><g fill="black" fill-opacity="1" font-family="sans-serif" font-size="11px" image-rendering="optimizeQuality" stroke="black" stroke-opacity="1" text-rendering="geometricPrecision" transform="translate(466,163)"><text clip-path="url(#d3ee0415-70a8-4da9-bfc1-cf494565fa67)" stroke="none" x="10" xml:space="preserve" y="12">1</text></g><g fill="black" fill-opacity="1" font-family="sans-serif" font-size="11px" image-rendering="optimizeQuality" stroke="black" stroke-opacity="1" text-rendering="geometricPrecision" transform="translate(422,213)"><text clip-path="url(#1120ab80-608a-424e-809a-617a50383c8b)" stroke="none" x="10" xml:space="preserve" y="12">1..*</text></g><g data="{&quot;name&quot;:&quot;contém&quot;,&quot;modelType&quot;:&quot;Association&quot;}" hyper="" model-id="connector-oSj.EvmGAqACZAjZ" style="pointer-events: auto; cursor: pointer;"><g fill="black" fill-opacity="1" font-family="sans-serif" font-size="11px" image-rendering="optimizeQuality" stroke="black" stroke-linecap="butt" stroke-linejoin="round" stroke-opacity="1" text-rendering="geometricPrecision" transform="translate(242,86)"><line clip-path="url(#8813df3f-9aab-429d-b400-ab3a5bf7fc08)" fill="none" x1="50" x2="150" y1="50" y2="50"/></g></g><g data="{&quot;name&quot;:&quot;sobre&quot;,&quot;modelType&quot;:&quot;Association&quot;}" hyper="" model-id="connector-x.wBEvmGAqACZAkm" style="pointer-events: auto; cursor: pointer;"><g fill="black" fill-opacity="1" font-family="sans-serif" font-size="11px" image-rendering="optimizeQuality" stroke="black" stroke-linecap="butt" stroke-linejoin="round" stroke-opacity="1" text-rendering="geometricPrecision" transform="translate(200,107)"><line clip-path="url(#ce0c7054-cacd-4557-9ead-3ca1a8366e0e)" fill="none" x1="50" x2="50" y1="122" y2="50"/></g></g><g data="{&quot;name&quot;:&quot;sobre&quot;,&quot;modelType&quot;:&quot;Association&quot;}" hyper="" model-id="connector-EDEBEvmGAqACZAlA" style="pointer-events: auto; cursor: pointer;"><g fill="black" fill-opacity="1" font-family="sans-serif" font-size="11px" image-rendering="optimizeQuality" stroke="black" stroke-linecap="butt" stroke-linejoin="round" stroke-opacity="1" text-rendering="geometricPrecision" transform="translate(242,200)"><line clip-path="url(#6402ba75-7a3d-4c1b-8f68-4611e2a678c9)" fill="none" x1="50" x2="177" y1="50" y2="50"/></g></g><g data="{&quot;name&quot;:&quot;regista&quot;,&quot;modelType&quot;:&quot;Association&quot;}" hyper="" model-id="connector-fasBEvmGAqACZAlo" style="pointer-events: auto; cursor: pointer;"><g fill="black" fill-opacity="1" font-family="sans-serif" font-size="11px" image-rendering="optimizeQuality" stroke="black" stroke-linecap="butt" stroke-linejoin="round" stroke-opacity="1" text-rendering="geometricPrecision" transform="translate(200,-7)"><line clip-path="url(#3ef06ad0-32d9-4c27-a02c-39e6a8c1e91a)" fill="none" x1="50" x2="50" y1="122" y2="50"/></g></g><g data="{&quot;name&quot;:&quot;é um&quot;,&quot;modelType&quot;:&quot;Association&quot;}" hyper="" model-id="connector-MgCBEvmGAqACZAl8" style="pointer-events: auto; cursor: pointer;"><g fill="black" fill-opacity="1" font-family="sans-serif" font-size="11px" image-rendering="optimizeQuality" stroke="black" stroke-linecap="butt" stroke-linejoin="round" stroke-opacity="1" text-rendering="geometricPrecision" transform="translate(2,-17)"><line clip-path="url(#1b2d3714-676c-4c57-8831-a1b1b727edb5)" fill="none" x1="208" x2="38" y1="39" y2="39"/><line clip-path="url(#1b2d3714-676c-4c57-8831-a1b1b727edb5)" fill="none" x1="38" x2="38" y1="39" y2="131"/></g></g><g data="{&quot;name&quot;:&quot;prepara&quot;,&quot;modelType&quot;:&quot;Association&quot;}" hyper="" model-id="connector-Tg6BEvmGAqACZAmW" style="pointer-events: auto; cursor: pointer;"><g fill="black" fill-opacity="1" font-family="sans-serif" font-size="11px" image-rendering="optimizeQuality" stroke="black" stroke-linecap="butt" stroke-linejoin="round" stroke-opacity="1" text-rendering="geometricPrecision" transform="translate(242,-28)"><line clip-path="url(#f6b2e49e-1845-464b-8df2-4f2d21e79ce7)" fill="none" x1="50" x2="218" y1="50" y2="50"/><line clip-path="url(#f6b2e49e-1845-464b-8df2-4f2d21e79ce7)" fill="none" x1="218" x2="218" y1="50" y2="137"/></g></g><g data="{&quot;name&quot;:&quot;feito de&quot;,&quot;modelType&quot;:&quot;Association&quot;}" hyper="" model-id="connector-QWeBEvmGAqACZAnN" style="pointer-events: auto; cursor: pointer;"><g fill="black" fill-opacity="1" font-family="sans-serif" font-size="11px" image-rendering="optimizeQuality" stroke="black" stroke-linecap="butt" stroke-linejoin="round" stroke-opacity="1" text-rendering="geometricPrecision" transform="translate(410,113)"><line clip-path="url(#cf99ed25-1020-4ba8-8a33-c4ea0d3beb4f)" fill="none" x1="50" x2="50" y1="50" y2="116"/></g></g><g data="{&quot;name&quot;:&quot;consulta&quot;,&quot;modelType&quot;:&quot;Association&quot;}" hyper="" model-id="connector-kjZBEvmGAqACZAnh" style="pointer-events: auto; cursor: pointer;"><g fill="black" fill-opacity="1" font-family="sans-serif" font-size="11px" image-rendering="optimizeQuality" stroke="black" stroke-linecap="butt" stroke-linejoin="round" stroke-opacity="1" text-rendering="geometricPrecision" transform="translate(-9,107)"><line clip-path="url(#62fb6ce4-ab1c-426a-b06f-f233120aed4e)" fill="none" x1="50" x2="50" y1="50" y2="143"/><line clip-path="url(#62fb6ce4-ab1c-426a-b06f-f233120aed4e)" fill="none" x1="50" x2="219" y1="143" y2="143"/></g></g><g fill="black" fill-opacity="1" font-family="sans-serif" font-size="11px" image-rendering="optimizeQuality" stroke="black" stroke-opacity="1" text-rendering="geometricPrecision" transform="translate(89,231)"><path clip-path="url(#9f1ade77-1568-4fa6-8ad6-03252270ab99)" d="M14.5 6.5 L1.5 11.5 L1.5 1.5 Z" stroke="none"/><text clip-path="url(#386f73df-d0e7-4c30-b30c-6d39ee584372)" stroke="none" transform="translate(-10,0)" x="28" xml:space="preserve" y="12">consulta</text></g><g fill="black" fill-opacity="1" font-family="sans-serif" font-size="11px" image-rendering="optimizeQuality" stroke="black" stroke-opacity="1" text-rendering="geometricPrecision" transform="translate(461,189)"><path clip-path="url(#4929b09b-3a28-4312-a702-b36d664b887c)" d="M8 13 L3 0 L13 0 Z" stroke="none"/><text clip-path="url(#3277e142-5194-4c1f-90c8-c2be4fc3565d)" stroke="none" transform="translate(1,-2)" x="16" xml:space="preserve" y="14">feito de</text></g><g fill="black" fill-opacity="1" font-family="sans-serif" font-size="11px" image-rendering="optimizeQuality" stroke="black" stroke-opacity="1" text-rendering="geometricPrecision" transform="translate(357,5)"><path clip-path="url(#5130f1c3-c426-43fd-907f-b3262aba5948)" d="M14.5 6.5 L1.5 11.5 L1.5 1.5 Z" stroke="none"/><text clip-path="url(#a58e7b35-5bf9-47ae-aba7-5dc268b13937)" stroke="none" transform="translate(-10,0)" x="28" xml:space="preserve" y="12">prepara</text></g><g fill="black" fill-opacity="1" font-family="sans-serif" font-size="11px" image-rendering="optimizeQuality" stroke="black" stroke-opacity="1" text-rendering="geometricPrecision" transform="translate(96,5)"><path clip-path="url(#66ed9d90-ae6e-4825-a091-d68ab132b45e)" d="M14.5 6.5 L1.5 11.5 L1.5 1.5 Z" stroke="none"/><text clip-path="url(#97ee041d-38de-48c1-951c-db1bee1ecdde)" stroke="none" transform="translate(-11,0)" x="28" xml:space="preserve" y="12">é um</text></g><g fill="black" fill-opacity="1" font-family="sans-serif" font-size="11px" image-rendering="optimizeQuality" stroke="black" stroke-opacity="1" text-rendering="geometricPrecision" transform="translate(251,72)"><path clip-path="url(#7358d854-4789-43c9-930f-18595b55e00d)" d="M8 13 L3 0 L13 0 Z" stroke="none"/><text clip-path="url(#b387eb16-9a40-4e2f-a4f5-bf3d6c3edd78)" stroke="none" transform="translate(2,-2)" x="15" xml:space="preserve" y="14">regista</text></g><g fill="black" fill-opacity="1" font-family="sans-serif" font-size="11px" image-rendering="optimizeQuality" stroke="black" stroke-opacity="1" text-rendering="geometricPrecision" transform="translate(332,253)"><path clip-path="url(#212d74da-2eae-4e67-b4d2-6b15ed152e60)" d="M14.5 6.5 L1.5 11.5 L1.5 1.5 Z" stroke="none"/><text clip-path="url(#33875ec2-4f10-4102-a9db-e4f41b981f9a)" stroke="none" transform="translate(-4,-2)" x="22" xml:space="preserve" y="14">sobre</text></g><g fill="black" fill-opacity="1" font-family="sans-serif" font-size="11px" image-rendering="optimizeQuality" stroke="black" stroke-opacity="1" text-rendering="geometricPrecision" transform="translate(253,184)"><path clip-path="url(#f9ead62f-3b90-4429-a586-b425d6c028a5)" d="M8 0 L13 13 L3 13 Z" stroke="none"/><text clip-path="url(#a091fca2-6e4f-42a3-a20c-19353a15dd04)" stroke="none" transform="translate(0,-2)" x="18" xml:space="preserve" y="14">sobre</text></g><g fill="black" fill-opacity="1" font-family="sans-serif" font-size="11px" image-rendering="optimizeQuality" stroke="black" stroke-opacity="1" text-rendering="geometricPrecision" transform="translate(314,118)"><path clip-path="url(#c6a6de35-a897-4776-a381-d07cd279f8a8)" d="M14.5 6.5 L1.5 11.5 L1.5 1.5 Z" stroke="none"/><text clip-path="url(#c63703f1-718c-4b78-9ba1-1bde52ed7432)" stroke="none" transform="translate(-11,0)" x="28" xml:space="preserve" y="12">contém</text></g><g fill="rgb(120,120,120)" fill-opacity="1" font-size="10px" image-rendering="optimizeQuality" stroke="rgb(120,120,120)" stroke-opacity="1" text-rendering="geometricPrecision" transform="rotate(-45) translate(-195.5263,0)"><text stroke="none" x="0" xml:space="preserve" y="0">   </text><text stroke="none" x="221" xml:space="preserve" y="0">   </text><text stroke="none" x="442" xml:space="preserve" y="0">   </text><text stroke="none" x="100" xml:space="preserve" y="56">   </text><text stroke="none" x="321" xml:space="preserve" y="56">   </text><text stroke="none" x="542" xml:space="preserve" y="56">   </text><text stroke="none" x="0" xml:space="preserve" y="112">   </text><text stroke="none" x="221" xml:space="preserve" y="112">   </text><text stroke="none" x="442" xml:space="preserve" y="112">   </text><text stroke="none" x="100" xml:space="preserve" y="168">   </text><text stroke="none" x="321" xml:space="preserve" y="168">   </text><text stroke="none" x="542" xml:space="preserve" y="168">   </text><text stroke="none" x="0" xml:space="preserve" y="224">   </text><text stroke="none" x="221" xml:space="preserve" y="224">   </text><text stroke="none" x="442" xml:space="preserve" y="224">   </text><text stroke="none" x="100" xml:space="preserve" y="280">   </text><text stroke="none" x="321" xml:space="preserve" y="280">   </text><text stroke="none" x="542" xml:space="preserve" y="280">   </text><text stroke="none" x="0" xml:space="preserve" y="336">   </text><text stroke="none" x="221" xml:space="preserve" y="336">   </text><text stroke="none" x="442" xml:space="preserve" y="336">   </text><text stroke="none" x="100" xml:space="preserve" y="392">   </text><text stroke="none" x="321" xml:space="preserve" y="392">   </text><text stroke="none" x="542" xml:space="preserve" y="392">   </text><text stroke="none" x="0" xml:space="preserve" y="448">   </text><text stroke="none" x="221" xml:space="preserve" y="448">   </text><text stroke="none" x="442" xml:space="preserve" y="448">   </text><text stroke="none" x="100" xml:space="preserve" y="504">   </text><text stroke="none" x="321" xml:space="preserve" y="504">   </text><text stroke="none" x="542" xml:space="preserve" y="504">   </text></g></g></svg>