<?xml version="1.0" encoding="UTF-8"?><svg xmlns="http://www.w3.org/2000/svg" xmlns:xlink="http://www.w3.org/1999/xlink" color-interpolation="auto" color-rendering="auto" fill="rgb(0,0,0)" fill-opacity="0" font-family="'Dialog'" font-size="12px" font-style="normal" font-weight="normal" height="478" image-rendering="auto" shape-rendering="auto" stroke="rgb(0,0,0)" stroke-dasharray="none" stroke-dashoffset="0" stroke-linecap="square" stroke-linejoin="miter" stroke-miterlimit="10" stroke-opacity="0" stroke-width="1" text-rendering="auto" viewbox="0 0 907 478" width="907"><!--Generated by the Batik Graphics2D SVG Generator--><defs id="genericDefs"/><g><defs id="defs1"><clipPath clipPathUnits="userSpaceOnUse" id="0cfeb19a-64dd-4991-b287-858b7ad3fdcf"><path d="M-7 -7 L161 -7 L161 483 L-7 483 L-7 -7 Z"/></clipPath><clipPath clipPathUnits="userSpaceOnUse" id="bb3d0399-c00b-4a63-804c-ab93b84ad196"><path d="M-7 -7 L161 -7 L161 483 L-7 483 L-7 -7 Z"/></clipPath><clipPath clipPathUnits="userSpaceOnUse" id="a6b33adf-ff16-4337-ace5-d0bd45e0e75d"><path d="M-7 -7 L161 -7 L161 483 L-7 483 L-7 -7 Z"/></clipPath><clipPath clipPathUnits="userSpaceOnUse" id="046ff0e6-e88c-4660-861a-1bd5055c15e5"><path d="M-7 -7 L161 -7 L161 483 L-7 483 L-7 -7 Z"/></clipPath><clipPath clipPathUnits="userSpaceOnUse" id="898fba5b-a467-43e7-882d-ccb1768960c0"><path d="M-7 -7 L161 -7 L161 483 L-7 483 L-7 -7 Z"/></clipPath><clipPath clipPathUnits="userSpaceOnUse" id="78cb3d84-f885-49b6-bc2c-6b63ec4e40ad"><path d="M-7 -7 L161 -7 L161 483 L-7 483 L-7 -7 Z"/></clipPath><clipPath clipPathUnits="userSpaceOnUse" id="7f390928-90ae-4ed5-ba0f-02385af5af8b"><path d="M-7 -7 L19 -7 L19 25 L-7 25 L-7 -7 Z"/></clipPath><clipPath clipPathUnits="userSpaceOnUse" id="087df827-d886-4829-be67-cfb445659e55"><path d="M-7 -7 L19 -7 L19 25 L-7 25 L-7 -7 Z"/></clipPath><clipPath clipPathUnits="userSpaceOnUse" id="33f32624-a952-485c-b1b6-7be6b2450877"><path d="M-7 -7 L18 -7 L18 347 L-7 347 L-7 -7 Z"/></clipPath><clipPath clipPathUnits="userSpaceOnUse" id="5ae741da-a3d5-4bac-87b2-3249459d4953"><path d="M-7 -7 L18 -7 L18 347 L-7 347 L-7 -7 Z"/></clipPath><clipPath clipPathUnits="userSpaceOnUse" id="cd348925-1aca-4d96-b567-cdf333d7d39f"><path d="M-7 -7 L18 -7 L18 389 L-7 389 L-7 -7 Z"/></clipPath><clipPath clipPathUnits="userSpaceOnUse" id="cfa83d07-2e79-4afa-b8fe-9eb2bced6064"><path d="M-7 -7 L18 -7 L18 389 L-7 389 L-7 -7 Z"/></clipPath><clipPath clipPathUnits="userSpaceOnUse" id="084ba69e-3430-4ce4-ba41-a074f7928785"><path d="M-7 -7 L71 -7 L71 483 L-7 483 L-7 -7 Z"/></clipPath><clipPath clipPathUnits="userSpaceOnUse" id="57582caa-1d36-4e5c-84db-ccb258299c0d"><path d="M-7 -7 L71 -7 L71 483 L-7 483 L-7 -7 Z"/></clipPath><clipPath clipPathUnits="userSpaceOnUse" id="69004068-5b76-425a-8efa-c4948d6c4fee"><path d="M-7 -7 L19 -7 L19 24 L-7 24 L-7 -7 Z"/></clipPath><clipPath clipPathUnits="userSpaceOnUse" id="5881b604-7d12-45b9-9ae4-1fcb0144033b"><path d="M-7 -7 L19 -7 L19 24 L-7 24 L-7 -7 Z"/></clipPath><clipPath clipPathUnits="userSpaceOnUse" id="247a2456-7c05-4141-9c7f-0c96ff17bd20"><path d="M-7 -7 L523 -7 L523 252 L-7 252 L-7 -7 Z"/></clipPath><clipPath clipPathUnits="userSpaceOnUse" id="fb0a4769-2756-461c-b90c-95ee90903d46"><path d="M189 24 L189 38 L39 38 L39 24 ZM-7 -7 L-7 252 L523 252 L523 -7 Z"/></clipPath><clipPath clipPathUnits="userSpaceOnUse" id="76ff1c38-79c7-40b4-ac38-2e78bf4ba444"><path d="M-7 -7 L523 -7 L523 252 L-7 252 L-7 -7 Z"/></clipPath><clipPath clipPathUnits="userSpaceOnUse" id="2092d8d9-25b7-4a3e-9b17-599335c0a5fc"><path d="M0 0 L0 18 L34 18 L34 0 Z"/></clipPath><clipPath clipPathUnits="userSpaceOnUse" id="b06c7018-4142-4ca7-93e5-8609271f9883"><path d="M-7 -7 L524 -7 L524 235 L-7 235 L-7 -7 Z"/></clipPath><clipPath clipPathUnits="userSpaceOnUse" id="0c8f628e-b309-4805-bbb3-26042af73792"><path d="M-7 -7 L524 -7 L524 235 L-7 235 L-7 -7 Z"/></clipPath><clipPath clipPathUnits="userSpaceOnUse" id="a9b813fb-3c1f-49c3-9e1a-e6985371aa1f"><path d="M0 0 L0 15 L171 15 L171 0 Z"/></clipPath><clipPath clipPathUnits="userSpaceOnUse" id="71de33ba-36fa-4f0a-a84e-b12ece6ba418"><path d="M0 0 L0 4 L513 4 L513 0 Z"/></clipPath><clipPath clipPathUnits="userSpaceOnUse" id="e8e1efd8-459a-4cad-9ce2-a7871bb2e26c"><path d="M-7 -7 L19 -7 L19 59 L-7 59 L-7 -7 Z"/></clipPath><clipPath clipPathUnits="userSpaceOnUse" id="7747a9ff-8f1b-4993-be55-28065f479793"><path d="M-7 -7 L19 -7 L19 59 L-7 59 L-7 -7 Z"/></clipPath><clipPath clipPathUnits="userSpaceOnUse" id="d5f5a08c-cd2b-4fde-b5de-04537419e9e0"><path d="M-7 -7 L494 -7 L494 122 L-7 122 L-7 -7 Z"/></clipPath><clipPath clipPathUnits="userSpaceOnUse" id="92d42195-b503-4dce-add9-66e7290f4c51"><path d="M478 24 L478 38 L49 38 L49 24 ZM-7 -7 L-7 122 L494 122 L494 -7 Z"/></clipPath><clipPath clipPathUnits="userSpaceOnUse" id="379235dc-6366-45fd-88a8-f0ffd9771216"><path d="M-7 -7 L494 -7 L494 122 L-7 122 L-7 -7 Z"/></clipPath><clipPath clipPathUnits="userSpaceOnUse" id="3bcfd5e4-30d4-4f39-87a4-269c0f35d519"><path d="M0 0 L0 18 L28 18 L28 0 Z"/></clipPath><clipPath clipPathUnits="userSpaceOnUse" id="ed00c340-dc72-4364-8014-b3af9d7fa800"><path d="M-7 -7 L19 -7 L19 24 L-7 24 L-7 -7 Z"/></clipPath><clipPath clipPathUnits="userSpaceOnUse" id="48cd0ace-5851-4f12-a338-efbb3205a291"><path d="M-7 -7 L19 -7 L19 24 L-7 24 L-7 -7 Z"/></clipPath><clipPath clipPathUnits="userSpaceOnUse" id="c9990014-46bb-45e6-bacc-9c2379ab820d"><path d="M-7 -7 L494 -7 L494 104 L-7 104 L-7 -7 Z"/></clipPath><clipPath clipPathUnits="userSpaceOnUse" id="564cdf1f-56d0-46dc-b2b1-d8d1950ddd6e"><path d="M-7 -7 L494 -7 L494 104 L-7 104 L-7 -7 Z"/></clipPath><clipPath clipPathUnits="userSpaceOnUse" id="4685a3c2-0bcc-43d1-9843-9acb15ba0258"><path d="M0 0 L0 15 L450 15 L450 0 Z"/></clipPath><clipPath clipPathUnits="userSpaceOnUse" id="37ae62ed-c3f5-416c-9bfe-5673bfdd8601"><path d="M0 0 L0 4 L483 4 L483 0 Z"/></clipPath><clipPath clipPathUnits="userSpaceOnUse" id="a1a69849-9bd3-4edb-8e7d-73f1f1dbfabb"><path d="M-150 -15 L300 -15 L300 30 L-150 30 L-150 -15 Z"/></clipPath><clipPath clipPathUnits="userSpaceOnUse" id="e320999d-c7b7-4ee8-b5da-ced14ee63c6c"><path d="M-69 -15 L138 -15 L138 30 L-69 30 L-69 -15 Z"/></clipPath><clipPath clipPathUnits="userSpaceOnUse" id="74eaa5e2-5ed2-48fe-baf3-3744b009cf6d"><path d="M0 0 L270 0 L270 94 L0 94 L0 0 Z"/></clipPath><clipPath clipPathUnits="userSpaceOnUse" id="9ae17cc2-4f49-4456-935f-5b1c5ad2b30a"><path d="M207 23 L207 43 L51 43 L51 23 ZM0 0 L0 94 L270 94 L270 57 L233 57 L233 41 L270 41 L270 0 L77 0 L77 13 L8 13 L8 0 Z"/></clipPath><clipPath clipPathUnits="userSpaceOnUse" id="1427c95d-d0c8-439c-81df-03c04e864d5d"><path d="M0 0 L328 0 L328 115 L0 115 L0 0 Z"/></clipPath><clipPath clipPathUnits="userSpaceOnUse" id="2e8bdde9-f3e0-48da-8908-602de369c1fb"><path d="M257 36 L257 52 L60 52 L60 36 ZM0 0 L0 18 L34 18 L34 38 L0 38 L0 115 L328 115 L328 90 L311 90 L311 70 L328 70 L328 0 Z"/></clipPath><clipPath clipPathUnits="userSpaceOnUse" id="5248b5e2-c6a9-4a38-806f-f70e38fb8544"><path d="M0 0 L412 0 L412 115 L0 115 L0 0 Z"/></clipPath><clipPath clipPathUnits="userSpaceOnUse" id="e614e259-101a-471f-9af7-e217a647cc88"><path d="M270 32 L270 48 L134 48 L134 32 ZM195 70 L195 90 L89 90 L89 70 ZM0 0 L0 115 L412 115 L412 0 Z"/></clipPath><clipPath clipPathUnits="userSpaceOnUse" id="d4783c72-8719-4a4f-a96e-e5f803a03af9"><path d="M0 0 L145 0 L145 135 L0 135 L0 0 Z"/></clipPath><clipPath clipPathUnits="userSpaceOnUse" id="f7d8f802-6c7d-4303-91bb-3f7f2872a217"><path d="M0 0 L0 22 L36 22 L36 38 L0 38 L0 135 L145 135 L145 76 L90 76 L90 56 L145 56 L145 0 Z"/></clipPath><clipPath clipPathUnits="userSpaceOnUse" id="25bcb1ef-e64e-48d9-8a4d-cc218ec1fcaa"><path d="M0 0 L412 0 L412 115 L0 115 L0 0 Z"/></clipPath><clipPath clipPathUnits="userSpaceOnUse" id="89c46748-f14e-4293-8ef6-2958aaf69708"><path d="M289 35 L289 51 L121 51 L121 35 ZM296 73 L296 89 L108 89 L108 73 ZM0 0 L0 115 L412 115 L412 0 Z"/></clipPath><clipPath clipPathUnits="userSpaceOnUse" id="64f5c3ec-a57b-48dc-b405-e83526de82f0"><path d="M0 0 L412 0 L412 115 L0 115 L0 0 Z"/></clipPath><clipPath clipPathUnits="userSpaceOnUse" id="9d3b154b-7d70-4725-b4c3-f3996f7c8f2c"><path d="M296 35 L296 51 L108 51 L108 35 ZM0 0 L0 115 L134 115 L134 113 L270 113 L270 115 L412 115 L412 0 L289 0 L289 13 L121 13 L121 0 Z"/></clipPath><clipPath clipPathUnits="userSpaceOnUse" id="3682e20a-cc88-48f1-9926-fb20c9262560"><path d="M0 0 L144 0 L144 135 L0 135 L0 0 Z"/></clipPath><clipPath clipPathUnits="userSpaceOnUse" id="83f65c25-b3d6-4218-b7a2-4bc6d2c98e85"><path d="M0 0 L0 135 L144 135 L144 76 L89 76 L89 56 L144 56 L144 34 L134 34 L134 18 L144 18 L144 0 Z"/></clipPath><clipPath clipPathUnits="userSpaceOnUse" id="8b5713d5-f49a-4317-b3c5-f0ae1a8820df"><path d="M0 0 L328 0 L328 115 L0 115 L0 0 Z"/></clipPath><clipPath clipPathUnits="userSpaceOnUse" id="dd677fdb-d68a-4698-86bc-315717db4d94"><path d="M195 34 L195 50 L121 50 L121 34 ZM0 0 L0 115 L328 115 L328 12 L310 12 L310 0 Z"/></clipPath><clipPath clipPathUnits="userSpaceOnUse" id="8a01dbbb-2a7a-4484-970a-14e25146514c"><path d="M0 0 L270 0 L270 94 L0 94 L0 0 Z"/></clipPath><clipPath clipPathUnits="userSpaceOnUse" id="e6e386ac-814f-4559-afa6-8c44aff43d66"><path d="M159 23 L159 39 L108 39 L108 23 ZM0 0 L0 94 L270 94 L270 0 Z"/></clipPath><clipPath clipPathUnits="userSpaceOnUse" id="7790e44a-8f1c-449d-91fb-b58ceea92363"><path d="M-51 -16 L102 -16 L102 32 L-51 32 L-51 -16 Z"/></clipPath><clipPath clipPathUnits="userSpaceOnUse" id="5d89a29d-23d0-4106-9c44-caa5d7f6ff5f"><path d="M-74 -16 L148 -16 L148 32 L-74 32 L-74 -16 Z"/></clipPath><clipPath clipPathUnits="userSpaceOnUse" id="d1c78c3f-2d43-43ee-b34b-a44465035548"><path d="M-106 -20 L212 -20 L212 40 L-106 40 L-106 -20 Z"/></clipPath><clipPath clipPathUnits="userSpaceOnUse" id="6a31c853-c3d5-4029-9268-922974533d72"><path d="M-188 -16 L376 -16 L376 32 L-188 32 L-188 -16 Z"/></clipPath><clipPath clipPathUnits="userSpaceOnUse" id="416ff05f-6e52-4659-8fb9-45623da92543"><path d="M-168 -16 L336 -16 L336 32 L-168 32 L-168 -16 Z"/></clipPath><clipPath clipPathUnits="userSpaceOnUse" id="a70d92f1-ddcf-4daa-8562-8855933c5134"><path d="M-80 -20 L160 -20 L160 40 L-80 40 L-80 -20 Z"/></clipPath><clipPath clipPathUnits="userSpaceOnUse" id="d4f504e0-daa6-4c86-b632-5316fa1d6b12"><path d="M-136 -16 L272 -16 L272 32 L-136 32 L-136 -16 Z"/></clipPath><clipPath clipPathUnits="userSpaceOnUse" id="3e6635d2-3aa3-4c48-afbd-fa8bd4802725"><path d="M-197 -16 L394 -16 L394 32 L-197 32 L-197 -16 Z"/></clipPath><clipPath clipPathUnits="userSpaceOnUse" id="a909f428-17a1-4f4e-8149-c7c06ab72351"><path d="M-156 -20 L312 -20 L312 40 L-156 40 L-156 -20 Z"/></clipPath></defs><g fill="white" fill-opacity="1" stroke="white" stroke-opacity="1" text-rendering="geometricPrecision"><rect height="478" stroke="none" width="907" x="0" y="0"/></g><g data="{&quot;name&quot;:&quot;&quot;,&quot;modelType&quot;:&quot;InteractionLifeLine&quot;}" hyper="" model-id="shape-hxvXOvmGAqACZDRL" style="pointer-events: auto; cursor: pointer;"><g fill="rgb(122,207,245)" fill-opacity="1" font-family="sans-serif" font-size="11px" image-rendering="optimizeQuality" stroke="rgb(122,207,245)" stroke-opacity="1" text-rendering="geometricPrecision" transform="translate(144,2)"><rect clip-path="url(#bb3d0399-c00b-4a63-804c-ab93b84ad196)" height="35" stroke="none" width="149" x="0" y="0"/></g><g fill="black" fill-opacity="1" font-family="sans-serif" font-size="11px" image-rendering="optimizeQuality" stroke="black" stroke-linecap="butt" stroke-linejoin="round" stroke-miterlimit="0" stroke-opacity="1" text-rendering="geometricPrecision" transform="translate(144,2)"><rect clip-path="url(#bb3d0399-c00b-4a63-804c-ab93b84ad196)" fill="none" height="35" width="149" x="0" y="0"/><line clip-path="url(#bb3d0399-c00b-4a63-804c-ab93b84ad196)" fill="none" stroke-dasharray="8,3" stroke-linejoin="bevel" x1="74" x2="74" y1="35" y2="472"/></g></g><g data="{&quot;name&quot;:&quot;&quot;,&quot;modelType&quot;:&quot;InteractionLifeLine&quot;}" hyper="" model-id="shape-NxvXOvmGAqACZDRO" style="pointer-events: auto; cursor: pointer;"><g fill="rgb(122,207,245)" fill-opacity="1" font-family="sans-serif" font-size="11px" image-rendering="optimizeQuality" stroke="rgb(122,207,245)" stroke-opacity="1" text-rendering="geometricPrecision" transform="translate(364,2)"><rect clip-path="url(#046ff0e6-e88c-4660-861a-1bd5055c15e5)" height="35" stroke="none" width="149" x="0" y="0"/></g><g fill="black" fill-opacity="1" font-family="sans-serif" font-size="11px" image-rendering="optimizeQuality" stroke="black" stroke-linecap="butt" stroke-linejoin="round" stroke-miterlimit="0" stroke-opacity="1" text-rendering="geometricPrecision" transform="translate(364,2)"><rect clip-path="url(#046ff0e6-e88c-4660-861a-1bd5055c15e5)" fill="none" height="35" width="149" x="0" y="0"/><line clip-path="url(#046ff0e6-e88c-4660-861a-1bd5055c15e5)" fill="none" stroke-dasharray="8,3" stroke-linejoin="bevel" x1="74" x2="74" y1="35" y2="472"/></g></g><g data="{&quot;name&quot;:&quot;p&quot;,&quot;modelType&quot;:&quot;InteractionLifeLine&quot;}" hyper="" model-id="shape-bxvXOvmGAqACZDRR" style="pointer-events: auto; cursor: pointer;"><g fill="rgb(122,207,245)" fill-opacity="1" font-family="sans-serif" font-size="11px" image-rendering="optimizeQuality" stroke="rgb(122,207,245)" stroke-opacity="1" text-rendering="geometricPrecision" transform="translate(670,2)"><rect clip-path="url(#78cb3d84-f885-49b6-bc2c-6b63ec4e40ad)" height="35" stroke="none" width="149" x="0" y="0"/></g><g fill="black" fill-opacity="1" font-family="sans-serif" font-size="11px" image-rendering="optimizeQuality" stroke="black" stroke-linecap="butt" stroke-linejoin="round" stroke-miterlimit="0" stroke-opacity="1" text-rendering="geometricPrecision" transform="translate(670,2)"><rect clip-path="url(#78cb3d84-f885-49b6-bc2c-6b63ec4e40ad)" fill="none" height="35" width="149" x="0" y="0"/><line clip-path="url(#78cb3d84-f885-49b6-bc2c-6b63ec4e40ad)" fill="none" stroke-dasharray="8,3" stroke-linejoin="bevel" x1="74" x2="74" y1="35" y2="472"/></g></g><g data="{&quot;name&quot;:&quot;Activation&quot;,&quot;modelType&quot;:&quot;Activation&quot;}" hyper="" model-id="shape-0lvXOvmGAqACZDU5" style="pointer-events: auto; cursor: pointer;"><g fill="rgb(122,207,245)" fill-opacity="1" font-family="sans-serif" font-size="11px" image-rendering="optimizeQuality" stroke="rgb(122,207,245)" stroke-opacity="1" text-rendering="geometricPrecision" transform="translate(741,334)"><rect clip-path="url(#087df827-d886-4829-be67-cfb445659e55)" height="14" stroke="none" width="8" x="0" y="0"/></g><g fill="black" fill-opacity="1" font-family="sans-serif" font-size="11px" image-rendering="optimizeQuality" stroke="black" stroke-linecap="butt" stroke-linejoin="round" stroke-miterlimit="0" stroke-opacity="1" text-rendering="geometricPrecision" transform="translate(741,334)"><rect clip-path="url(#087df827-d886-4829-be67-cfb445659e55)" fill="none" height="14" width="8" x="0" y="0"/></g></g><g data="{&quot;name&quot;:&quot;Activation&quot;,&quot;modelType&quot;:&quot;Activation&quot;}" hyper="" model-id="shape-AlvXOvmGAqACZDUn" style="pointer-events: auto; cursor: pointer;"><g fill="rgb(122,207,245)" fill-opacity="1" font-family="sans-serif" font-size="11px" image-rendering="optimizeQuality" stroke="rgb(122,207,245)" stroke-opacity="1" text-rendering="geometricPrecision" transform="translate(436,94)"><rect clip-path="url(#5ae741da-a3d5-4bac-87b2-3249459d4953)" height="336" stroke="none" width="7" x="0" y="0"/></g><g fill="black" fill-opacity="1" font-family="sans-serif" font-size="11px" image-rendering="optimizeQuality" stroke="black" stroke-linecap="butt" stroke-linejoin="round" stroke-miterlimit="0" stroke-opacity="1" text-rendering="geometricPrecision" transform="translate(436,94)"><rect clip-path="url(#5ae741da-a3d5-4bac-87b2-3249459d4953)" fill="none" height="336" width="7" x="0" y="0"/></g></g><g data="{&quot;name&quot;:&quot;Activation&quot;,&quot;modelType&quot;:&quot;Activation&quot;}" hyper="" model-id="shape-PFvXOvmGAqACZDUh" style="pointer-events: auto; cursor: pointer;"><g fill="rgb(122,207,245)" fill-opacity="1" font-family="sans-serif" font-size="11px" image-rendering="optimizeQuality" stroke="rgb(122,207,245)" stroke-opacity="1" text-rendering="geometricPrecision" transform="translate(215,72)"><rect clip-path="url(#cfa83d07-2e79-4afa-b8fe-9eb2bced6064)" height="378" stroke="none" width="7" x="0" y="0"/></g><g fill="black" fill-opacity="1" font-family="sans-serif" font-size="11px" image-rendering="optimizeQuality" stroke="black" stroke-linecap="butt" stroke-linejoin="round" stroke-miterlimit="0" stroke-opacity="1" text-rendering="geometricPrecision" transform="translate(215,72)"><rect clip-path="url(#cfa83d07-2e79-4afa-b8fe-9eb2bced6064)" fill="none" height="378" width="7" x="0" y="0"/></g></g><g data="{&quot;name&quot;:&quot;PadariaUI&quot;,&quot;modelType&quot;:&quot;InteractionActor&quot;}" hyper="" model-id="shape-.hvXOvmGAqACZDLr" style="pointer-events: auto; cursor: pointer;"><g fill="rgb(122,207,245)" fill-opacity="1" font-family="sans-serif" font-size="11px" image-rendering="optimizeQuality" stroke="rgb(122,207,245)" stroke-opacity="1" text-rendering="geometricPrecision" transform="translate(6,2)"><circle clip-path="url(#57582caa-1d36-4e5c-84db-ccb258299c0d)" cx="30" cy="5" r="5" stroke="none"/><rect clip-path="url(#57582caa-1d36-4e5c-84db-ccb258299c0d)" height="421" stroke="none" width="8" x="26" y="50"/></g><g fill="black" fill-opacity="1" font-family="sans-serif" font-size="11px" image-rendering="optimizeQuality" stroke="black" stroke-linecap="butt" stroke-linejoin="round" stroke-miterlimit="0" stroke-opacity="1" text-rendering="geometricPrecision" transform="translate(6,2)"><circle clip-path="url(#57582caa-1d36-4e5c-84db-ccb258299c0d)" cx="30" cy="5" fill="none" r="5"/><rect clip-path="url(#57582caa-1d36-4e5c-84db-ccb258299c0d)" fill="none" height="421" width="8" x="26" y="50"/><line clip-path="url(#57582caa-1d36-4e5c-84db-ccb258299c0d)" fill="none" x1="30" x2="30" y1="10" y2="25"/><line clip-path="url(#57582caa-1d36-4e5c-84db-ccb258299c0d)" fill="none" x1="30" x2="21" y1="25" y2="36"/><line clip-path="url(#57582caa-1d36-4e5c-84db-ccb258299c0d)" fill="none" x1="30" x2="39" y1="25" y2="36"/><line clip-path="url(#57582caa-1d36-4e5c-84db-ccb258299c0d)" fill="none" x1="21" x2="39" y1="16" y2="16"/></g></g><g data="{&quot;name&quot;:&quot;Activation&quot;,&quot;modelType&quot;:&quot;Activation&quot;}" hyper="" model-id="shape-yLSfOvmGAqACZDuJ" style="pointer-events: auto; cursor: pointer;"><g fill="rgb(122,207,245)" fill-opacity="1" font-family="sans-serif" font-size="11px" image-rendering="optimizeQuality" stroke="rgb(122,207,245)" stroke-opacity="1" text-rendering="geometricPrecision" transform="translate(439,134)"><rect clip-path="url(#5881b604-7d12-45b9-9ae4-1fcb0144033b)" height="13" stroke="none" width="8" x="0" y="0"/></g><g fill="black" fill-opacity="1" font-family="sans-serif" font-size="11px" image-rendering="optimizeQuality" stroke="black" stroke-linecap="butt" stroke-linejoin="round" stroke-miterlimit="0" stroke-opacity="1" text-rendering="geometricPrecision" transform="translate(439,134)"><rect clip-path="url(#5881b604-7d12-45b9-9ae4-1fcb0144033b)" fill="none" height="13" width="8" x="0" y="0"/></g></g><g data="{&quot;name&quot;:&quot;c para cada valor em pedidos&quot;,&quot;modelType&quot;:&quot;CombinedFragment&quot;}" hyper="" model-id="shape-p9hfOvmGAqACZDvv" style="pointer-events: auto; cursor: pointer;"><g fill="black" fill-opacity="1" font-family="sans-serif" font-size="11px" font-weight="bold" image-rendering="optimizeQuality" stroke="black" stroke-linecap="butt" stroke-linejoin="round" stroke-miterlimit="0" stroke-opacity="1" text-rendering="geometricPrecision" transform="translate(390,156)"><rect clip-path="url(#fb0a4769-2756-461c-b90c-95ee90903d46)" fill="none" height="241" width="512" x="0" y="0"/></g><g fill="white" fill-opacity="1" font-family="sans-serif" font-size="11px" font-weight="bold" image-rendering="optimizeQuality" stroke="white" stroke-opacity="1" text-rendering="geometricPrecision" transform="translate(390,156)"><path clip-path="url(#fb0a4769-2756-461c-b90c-95ee90903d46)" d="M33 0 L33 9 L27 17 L0 17 L0 0 Z" stroke="none"/></g><g fill="black" fill-opacity="1" font-family="sans-serif" font-size="11px" font-weight="bold" image-rendering="optimizeQuality" stroke="black" stroke-linecap="butt" stroke-linejoin="round" stroke-miterlimit="0" stroke-opacity="1" text-rendering="geometricPrecision" transform="translate(390,156)"><path clip-path="url(#fb0a4769-2756-461c-b90c-95ee90903d46)" d="M33 0 L33 9 L27 17 L0 17 L0 0 Z" fill="none"/></g></g><g fill="black" fill-opacity="1" font-family="sans-serif" font-size="11px" font-weight="bold" image-rendering="optimizeQuality" stroke="black" stroke-opacity="1" text-rendering="geometricPrecision" transform="translate(390,156)"><text clip-path="url(#2092d8d9-25b7-4a3e-9b17-599335c0a5fc)" stroke="none" x="5" xml:space="preserve" y="12">loop</text></g><g fill="white" fill-opacity="1" font-family="sans-serif" font-size="11px" image-rendering="optimizeQuality" stroke="white" stroke-opacity="1" text-rendering="geometricPrecision" transform="translate(418,179)"><rect clip-path="url(#a9b813fb-3c1f-49c3-9e1a-e6985371aa1f)" height="17" stroke="none" width="152" x="9" y="-1"/><text clip-path="url(#a9b813fb-3c1f-49c3-9e1a-e6985371aa1f)" fill="black" stroke="none" x="10" xml:space="preserve" y="12">[c para cada valor em pedidos]</text></g><g data="{&quot;name&quot;:&quot;Activation&quot;,&quot;modelType&quot;:&quot;Activation&quot;}" hyper="" model-id="shape-H77fOvmGAqACZDxG" style="pointer-events: auto; cursor: pointer;"><g fill="rgb(122,207,245)" fill-opacity="1" font-family="sans-serif" font-size="11px" image-rendering="optimizeQuality" stroke="rgb(122,207,245)" stroke-opacity="1" text-rendering="geometricPrecision" transform="translate(741,215)"><rect clip-path="url(#7747a9ff-8f1b-4993-be55-28065f479793)" height="48" stroke="none" width="8" x="0" y="0"/></g><g fill="black" fill-opacity="1" font-family="sans-serif" font-size="11px" image-rendering="optimizeQuality" stroke="black" stroke-linecap="butt" stroke-linejoin="round" stroke-miterlimit="0" stroke-opacity="1" text-rendering="geometricPrecision" transform="translate(741,215)"><rect clip-path="url(#7747a9ff-8f1b-4993-be55-28065f479793)" fill="none" height="48" width="8" x="0" y="0"/></g></g><g data="{&quot;name&quot;:&quot;dataRegisto entre inicio e fim e estadoPedido não é EM_REGISTO nem CANCELADO&quot;,&quot;modelType&quot;:&quot;CombinedFragment&quot;}" hyper="" model-id="shape-sTm_OvmGAqACZDz5" style="pointer-events: auto; cursor: pointer;"><g fill="black" fill-opacity="1" font-family="sans-serif" font-size="11px" font-weight="bold" image-rendering="optimizeQuality" stroke="black" stroke-linecap="butt" stroke-linejoin="round" stroke-miterlimit="0" stroke-opacity="1" text-rendering="geometricPrecision" transform="translate(404,273)"><rect clip-path="url(#92d42195-b503-4dce-add9-66e7290f4c51)" fill="none" height="111" width="483" x="0" y="0"/></g><g fill="white" fill-opacity="1" font-family="sans-serif" font-size="11px" font-weight="bold" image-rendering="optimizeQuality" stroke="white" stroke-opacity="1" text-rendering="geometricPrecision" transform="translate(404,273)"><path clip-path="url(#92d42195-b503-4dce-add9-66e7290f4c51)" d="M27 0 L27 9 L21 17 L0 17 L0 0 Z" stroke="none"/></g><g fill="black" fill-opacity="1" font-family="sans-serif" font-size="11px" font-weight="bold" image-rendering="optimizeQuality" stroke="black" stroke-linecap="butt" stroke-linejoin="round" stroke-miterlimit="0" stroke-opacity="1" text-rendering="geometricPrecision" transform="translate(404,273)"><path clip-path="url(#92d42195-b503-4dce-add9-66e7290f4c51)" d="M27 0 L27 9 L21 17 L0 17 L0 0 Z" fill="none"/></g></g><g fill="black" fill-opacity="1" font-family="sans-serif" font-size="11px" font-weight="bold" image-rendering="optimizeQuality" stroke="black" stroke-opacity="1" text-rendering="geometricPrecision" transform="translate(404,273)"><text clip-path="url(#3bcfd5e4-30d4-4f39-87a4-269c0f35d519)" stroke="none" x="5" xml:space="preserve" y="12">opt</text></g><g data="{&quot;name&quot;:&quot;Activation&quot;,&quot;modelType&quot;:&quot;Activation&quot;}" hyper="" model-id="shape-SVT_OvmGAqACZD0h" style="pointer-events: auto; cursor: pointer;"><g fill="rgb(122,207,245)" fill-opacity="1" font-family="sans-serif" font-size="11px" image-rendering="optimizeQuality" stroke="rgb(122,207,245)" stroke-opacity="1" text-rendering="geometricPrecision" transform="translate(439,367)"><rect clip-path="url(#48cd0ace-5851-4f12-a338-efbb3205a291)" height="13" stroke="none" width="8" x="0" y="0"/></g><g fill="black" fill-opacity="1" font-family="sans-serif" font-size="11px" image-rendering="optimizeQuality" stroke="black" stroke-linecap="butt" stroke-linejoin="round" stroke-miterlimit="0" stroke-opacity="1" text-rendering="geometricPrecision" transform="translate(439,367)"><rect clip-path="url(#48cd0ace-5851-4f12-a338-efbb3205a291)" fill="none" height="13" width="8" x="0" y="0"/></g></g><g fill="white" fill-opacity="1" font-family="sans-serif" font-size="11px" image-rendering="optimizeQuality" stroke="white" stroke-opacity="1" text-rendering="geometricPrecision" transform="translate(432,296)"><rect clip-path="url(#4685a3c2-0bcc-43d1-9843-9acb15ba0258)" height="17" stroke="none" width="431" x="9" y="-1"/><text clip-path="url(#4685a3c2-0bcc-43d1-9843-9acb15ba0258)" fill="black" stroke="none" x="10" xml:space="preserve" y="12">[dataRegisto entre inicio e fim e estadoPedido não é EM_REGISTO nem CANCELADO]</text></g><g fill="black" fill-opacity="1" font-family="sans-serif" font-size="11px" image-rendering="optimizeQuality" stroke="black" stroke-opacity="1" text-rendering="geometricPrecision" transform="translate(144,2)"><text clip-path="url(#a1a69849-9bd3-4edb-8e7d-73f1f1dbfabb)" stroke="none" x="27" xml:space="preserve" y="12">: PadariaBLFacade</text></g><g fill="black" fill-opacity="1" font-family="sans-serif" font-size="11px" image-rendering="optimizeQuality" stroke="black" stroke-opacity="1" text-rendering="geometricPrecision" transform="translate(364,2)"><text clip-path="url(#a1a69849-9bd3-4edb-8e7d-73f1f1dbfabb)" stroke="none" x="21" xml:space="preserve" y="12">: GestPedidosFacade</text></g><g fill="black" fill-opacity="1" font-family="sans-serif" font-size="11px" image-rendering="optimizeQuality" stroke="black" stroke-opacity="1" text-rendering="geometricPrecision" transform="translate(670,2)"><text clip-path="url(#a1a69849-9bd3-4edb-8e7d-73f1f1dbfabb)" stroke="none" x="50" xml:space="preserve" y="12">p : Pedido</text></g><g fill="black" fill-opacity="1" font-family="sans-serif" font-size="11px" image-rendering="optimizeQuality" stroke="black" stroke-opacity="1" text-rendering="geometricPrecision" transform="translate(2,37)"><text clip-path="url(#e320999d-c7b7-4ee8-b5da-ced14ee63c6c)" stroke="none" x="10" xml:space="preserve" y="12">PadariaUI</text></g><g data="{&quot;name&quot;:&quot;getTotalVendido(inicio, fim)&quot;,&quot;modelType&quot;:&quot;Message&quot;}" hyper="" model-id="connector-gJvXOvmGAqACZDRU" style="pointer-events: auto; cursor: pointer;"><g fill="black" fill-opacity="1" font-family="sans-serif" font-size="11px" image-rendering="optimizeQuality" stroke="black" stroke-linecap="butt" stroke-linejoin="round" stroke-opacity="1" text-rendering="geometricPrecision" transform="translate(-6,39)"><line clip-path="url(#9ae17cc2-4f49-4456-935f-5b1c5ad2b30a)" fill="none" x1="45" x2="221" y1="45" y2="45"/><polygon clip-path="url(#9ae17cc2-4f49-4456-935f-5b1c5ad2b30a)" points=" 221 45 209 39 209 51" stroke="none"/><polygon clip-path="url(#9ae17cc2-4f49-4456-935f-5b1c5ad2b30a)" fill="none" points=" 221 45 209 39 209 51"/></g></g><g data="{&quot;name&quot;:&quot;calcularTotalVendido(inicio, fim)&quot;,&quot;modelType&quot;:&quot;Message&quot;}" hyper="" model-id="connector-rJvXOvmGAqACZDTQ" style="pointer-events: auto; cursor: pointer;"><g fill="black" fill-opacity="1" font-family="sans-serif" font-size="11px" image-rendering="optimizeQuality" stroke="black" stroke-linecap="butt" stroke-linejoin="round" stroke-opacity="1" text-rendering="geometricPrecision" transform="translate(167,44)"><line clip-path="url(#2e8bdde9-f3e0-48da-8908-602de369c1fb)" fill="none" x1="55" x2="269" y1="55" y2="55"/><polygon clip-path="url(#2e8bdde9-f3e0-48da-8908-602de369c1fb)" points=" 269 55 257 49 257 61" stroke="none"/><polygon clip-path="url(#2e8bdde9-f3e0-48da-8908-602de369c1fb)" fill="none" points=" 269 55 257 49 257 61"/></g></g><g data="{&quot;name&quot;:&quot;valor \u003d getTotal()&quot;,&quot;modelType&quot;:&quot;Message&quot;}" hyper="" model-id="connector-OZvXOvmGAqACZDTv" style="pointer-events: auto; cursor: pointer;"><g fill="black" fill-opacity="1" font-family="sans-serif" font-size="11px" image-rendering="optimizeQuality" stroke="black" stroke-linecap="butt" stroke-linejoin="round" stroke-opacity="1" text-rendering="geometricPrecision" transform="translate(388,278)"><line clip-path="url(#e614e259-101a-471f-9af7-e217a647cc88)" fill="none" x1="55" x2="353" y1="56" y2="56"/><polygon clip-path="url(#e614e259-101a-471f-9af7-e217a647cc88)" points=" 353 56 341 50 341 62" stroke="none"/><polygon clip-path="url(#e614e259-101a-471f-9af7-e217a647cc88)" fill="none" points=" 353 56 341 50 341 62"/></g></g><g data="{&quot;name&quot;:&quot;total \u003d 0&quot;,&quot;modelType&quot;:&quot;Message&quot;}" hyper="" model-id="connector-ALSfOvmGAqACZDuC" style="pointer-events: auto; cursor: pointer;"><g fill="black" fill-opacity="1" font-family="sans-serif" font-size="11px" image-rendering="optimizeQuality" stroke="black" stroke-linecap="butt" stroke-linejoin="round" stroke-opacity="1" text-rendering="geometricPrecision" transform="translate(388,58)"><line clip-path="url(#f7d8f802-6c7d-4303-91bb-3f7f2872a217)" fill="none" x1="55" x2="85" y1="56" y2="56"/><line clip-path="url(#f7d8f802-6c7d-4303-91bb-3f7f2872a217)" fill="none" x1="85" x2="85" y1="56" y2="76"/><line clip-path="url(#f7d8f802-6c7d-4303-91bb-3f7f2872a217)" fill="none" x1="85" x2="59" y1="76" y2="76"/><polygon clip-path="url(#f7d8f802-6c7d-4303-91bb-3f7f2872a217)" points=" 59 76 71 82 71 70" stroke="none"/><polygon clip-path="url(#f7d8f802-6c7d-4303-91bb-3f7f2872a217)" fill="none" points=" 59 76 71 82 71 70"/></g></g><g data="{&quot;name&quot;:&quot;dataRegisto \u003d getData()&quot;,&quot;modelType&quot;:&quot;Message&quot;}" hyper="" model-id="connector-wH7fOvmGAqACZDxK" style="pointer-events: auto; cursor: pointer;"><g fill="black" fill-opacity="1" font-family="sans-serif" font-size="11px" image-rendering="optimizeQuality" stroke="black" stroke-linecap="butt" stroke-linejoin="round" stroke-opacity="1" text-rendering="geometricPrecision" transform="translate(388,159)"><line clip-path="url(#89c46748-f14e-4293-8ef6-2958aaf69708)" fill="none" x1="55" x2="353" y1="56" y2="56"/><polygon clip-path="url(#89c46748-f14e-4293-8ef6-2958aaf69708)" points=" 353 56 341 50 341 62" stroke="none"/><polygon clip-path="url(#89c46748-f14e-4293-8ef6-2958aaf69708)" fill="none" points=" 353 56 341 50 341 62"/></g></g><g data="{&quot;name&quot;:&quot;estadoPedido \u003d getEstado()&quot;,&quot;modelType&quot;:&quot;Message&quot;}" hyper="" model-id="connector-M.vfOvmGAqACZDxc" style="pointer-events: auto; cursor: pointer;"><g fill="black" fill-opacity="1" font-family="sans-serif" font-size="11px" image-rendering="optimizeQuality" stroke="black" stroke-linecap="butt" stroke-linejoin="round" stroke-opacity="1" text-rendering="geometricPrecision" transform="translate(388,197)"><line clip-path="url(#9d3b154b-7d70-4725-b4c3-f3996f7c8f2c)" fill="none" x1="55" x2="353" y1="56" y2="56"/><polygon clip-path="url(#9d3b154b-7d70-4725-b4c3-f3996f7c8f2c)" points=" 353 56 341 50 341 62" stroke="none"/><polygon clip-path="url(#9d3b154b-7d70-4725-b4c3-f3996f7c8f2c)" fill="none" points=" 353 56 341 50 341 62"/></g></g><g data="{&quot;name&quot;:&quot;total +\u003d valor&quot;,&quot;modelType&quot;:&quot;Message&quot;}" hyper="" model-id="connector-AVT_OvmGAqACZD0a" style="pointer-events: auto; cursor: pointer;"><g fill="black" fill-opacity="1" font-family="sans-serif" font-size="11px" image-rendering="optimizeQuality" stroke="black" stroke-linecap="butt" stroke-linejoin="round" stroke-opacity="1" text-rendering="geometricPrecision" transform="translate(388,292)"><line clip-path="url(#83f65c25-b3d6-4218-b7a2-4bc6d2c98e85)" fill="none" x1="55" x2="84" y1="55" y2="55"/><line clip-path="url(#83f65c25-b3d6-4218-b7a2-4bc6d2c98e85)" fill="none" x1="84" x2="84" y1="55" y2="75"/><line clip-path="url(#83f65c25-b3d6-4218-b7a2-4bc6d2c98e85)" fill="none" x1="84" x2="59" y1="75" y2="75"/><polygon clip-path="url(#83f65c25-b3d6-4218-b7a2-4bc6d2c98e85)" points=" 59 75 71 81 71 69" stroke="none"/><polygon clip-path="url(#83f65c25-b3d6-4218-b7a2-4bc6d2c98e85)" fill="none" points=" 59 75 71 81 71 69"/></g></g><g data="{&quot;name&quot;:&quot;total&quot;,&quot;modelType&quot;:&quot;Message&quot;}" hyper="" model-id="connector-GDoAuvmGAqACZD1R" style="pointer-events: auto; cursor: pointer;"><g fill="black" fill-opacity="1" font-family="sans-serif" font-size="11px" image-rendering="optimizeQuality" stroke="black" stroke-dasharray="8,3" stroke-linecap="butt" stroke-linejoin="round" stroke-miterlimit="0" stroke-opacity="1" text-rendering="geometricPrecision" transform="translate(167,356)"><line clip-path="url(#dd677fdb-d68a-4698-86bc-315717db4d94)" fill="none" x1="269" x2="55" y1="56" y2="56"/><line clip-path="url(#dd677fdb-d68a-4698-86bc-315717db4d94)" fill="none" stroke-dasharray="none" stroke-miterlimit="10" x1="55" x2="67" y1="56" y2="62"/><line clip-path="url(#dd677fdb-d68a-4698-86bc-315717db4d94)" fill="none" stroke-dasharray="none" stroke-miterlimit="10" x1="55" x2="67" y1="56" y2="50"/></g></g><g data="{&quot;modelType&quot;:&quot;Message&quot;}" hyper="" model-id="connector-.00AuvmGAqACZD1m" style="pointer-events: auto; cursor: pointer;"><g fill="black" fill-opacity="1" font-family="sans-serif" font-size="11px" image-rendering="optimizeQuality" stroke="black" stroke-dasharray="8,3" stroke-linecap="butt" stroke-linejoin="round" stroke-miterlimit="0" stroke-opacity="1" text-rendering="geometricPrecision" transform="translate(-6,391)"><line clip-path="url(#e6e386ac-814f-4559-afa6-8c44aff43d66)" fill="none" x1="221" x2="45" y1="45" y2="45"/><line clip-path="url(#e6e386ac-814f-4559-afa6-8c44aff43d66)" fill="none" stroke-dasharray="none" stroke-miterlimit="10" x1="45" x2="57" y1="45" y2="51"/><line clip-path="url(#e6e386ac-814f-4559-afa6-8c44aff43d66)" fill="none" stroke-dasharray="none" stroke-miterlimit="10" x1="45" x2="57" y1="45" y2="39"/></g></g><g fill="white" fill-opacity="1" font-family="sans-serif" font-size="11px" image-rendering="optimizeQuality" stroke="white" stroke-opacity="1" text-rendering="geometricPrecision" transform="translate(102,414)"><rect clip-path="url(#7790e44a-8f1c-449d-91fb-b58ceea92363)" height="16" stroke="none" width="51" x="0" y="0"/><text clip-path="url(#7790e44a-8f1c-449d-91fb-b58ceea92363)" fill="black" stroke="none" x="11" xml:space="preserve" y="12">1.1.7:</text></g><g fill="white" fill-opacity="1" font-family="sans-serif" font-size="11px" image-rendering="optimizeQuality" stroke="white" stroke-opacity="1" text-rendering="geometricPrecision" transform="translate(288,390)"><rect clip-path="url(#5d89a29d-23d0-4106-9c44-caa5d7f6ff5f)" height="16" stroke="none" width="74" x="0" y="0"/><text clip-path="url(#5d89a29d-23d0-4106-9c44-caa5d7f6ff5f)" fill="black" stroke="none" x="10" xml:space="preserve" y="12">1.1.6: total</text></g><g fill="white" fill-opacity="1" font-family="sans-serif" font-size="11px" image-rendering="optimizeQuality" stroke="white" stroke-opacity="1" text-rendering="geometricPrecision" transform="translate(477,348)"><rect clip-path="url(#d1c78c3f-2d43-43ee-b34b-a44465035548)" height="20" stroke="none" width="106" x="0" y="0"/><text clip-path="url(#d1c78c3f-2d43-43ee-b34b-a44465035548)" fill="black" stroke="none" x="5" xml:space="preserve" y="14">1.1.5: total += valor</text></g><g fill="white" fill-opacity="1" font-family="sans-serif" font-size="11px" image-rendering="optimizeQuality" stroke="white" stroke-opacity="1" text-rendering="geometricPrecision" transform="translate(496,232)"><rect clip-path="url(#6a31c853-c3d5-4029-9268-922974533d72)" height="16" stroke="none" width="188" x="0" y="0"/><text clip-path="url(#6a31c853-c3d5-4029-9268-922974533d72)" fill="black" stroke="none" x="9" xml:space="preserve" y="12">1.1.3: estadoPedido = getEstado()</text></g><g fill="white" fill-opacity="1" font-family="sans-serif" font-size="11px" image-rendering="optimizeQuality" stroke="white" stroke-opacity="1" text-rendering="geometricPrecision" transform="translate(509,194)"><rect clip-path="url(#416ff05f-6e52-4659-8fb9-45623da92543)" height="16" stroke="none" width="168" x="0" y="0"/><text clip-path="url(#416ff05f-6e52-4659-8fb9-45623da92543)" fill="black" stroke="none" x="10" xml:space="preserve" y="12">1.1.2: dataRegisto = getData()</text></g><g fill="white" fill-opacity="1" font-family="sans-serif" font-size="11px" image-rendering="optimizeQuality" stroke="white" stroke-opacity="1" text-rendering="geometricPrecision" transform="translate(478,114)"><rect clip-path="url(#a70d92f1-ddcf-4daa-8562-8855933c5134)" height="20" stroke="none" width="80" x="0" y="0"/><text clip-path="url(#a70d92f1-ddcf-4daa-8562-8855933c5134)" fill="black" stroke="none" x="4" xml:space="preserve" y="14">1.1.1: total = 0</text></g><g fill="white" fill-opacity="1" font-family="sans-serif" font-size="11px" image-rendering="optimizeQuality" stroke="white" stroke-opacity="1" text-rendering="geometricPrecision" transform="translate(522,310)"><rect clip-path="url(#d4f504e0-daa6-4c86-b632-5316fa1d6b12)" height="16" stroke="none" width="136" x="0" y="0"/><text clip-path="url(#d4f504e0-daa6-4c86-b632-5316fa1d6b12)" fill="black" stroke="none" x="10" xml:space="preserve" y="12">1.1.4: valor = getTotal()</text></g><g fill="white" fill-opacity="1" font-family="sans-serif" font-size="11px" image-rendering="optimizeQuality" stroke="white" stroke-opacity="1" text-rendering="geometricPrecision" transform="translate(227,80)"><rect clip-path="url(#3e6635d2-3aa3-4c48-afbd-fa8bd4802725)" height="16" stroke="none" width="197" x="0" y="0"/><text clip-path="url(#3e6635d2-3aa3-4c48-afbd-fa8bd4802725)" fill="black" stroke="none" x="9" xml:space="preserve" y="12">1.1: calcularTotalVendido(inicio, fim)</text></g><g fill="white" fill-opacity="1" font-family="sans-serif" font-size="11px" image-rendering="optimizeQuality" stroke="white" stroke-opacity="1" text-rendering="geometricPrecision" transform="translate(45,62)"><rect clip-path="url(#a909f428-17a1-4f4e-8149-c7c06ab72351)" height="20" stroke="none" width="156" x="0" y="0"/><text clip-path="url(#a909f428-17a1-4f4e-8149-c7c06ab72351)" fill="black" stroke="none" x="5" xml:space="preserve" y="14">1: getTotalVendido(inicio, fim)</text></g><g fill="rgb(120,120,120)" fill-opacity="1" font-size="10px" image-rendering="optimizeQuality" stroke="rgb(120,120,120)" stroke-opacity="1" text-rendering="geometricPrecision" transform="rotate(-45) translate(-338.3613,0)"><text stroke="none" x="0" xml:space="preserve" y="0">    </text><text stroke="none" x="221" xml:space="preserve" y="0">    </text><text stroke="none" x="442" xml:space="preserve" y="0">    </text><text stroke="none" x="663" xml:space="preserve" y="0">    </text><text stroke="none" x="884" xml:space="preserve" y="0">    </text><text stroke="none" x="100" xml:space="preserve" y="56">    </text><text stroke="none" x="321" xml:space="preserve" y="56">    </text><text stroke="none" x="542" xml:space="preserve" y="56">    </text><text stroke="none" x="763" xml:space="preserve" y="56">    </text><text stroke="none" x="0" xml:space="preserve" y="112">    </text><text stroke="none" x="221" xml:space="preserve" y="112">    </text><text stroke="none" x="442" xml:space="preserve" y="112">    </text><text stroke="none" x="663" xml:space="preserve" y="112">    </text><text stroke="none" x="884" xml:space="preserve" y="112">    </text><text stroke="none" x="100" xml:space="preserve" y="168">    </text><text stroke="none" x="321" xml:space="preserve" y="168">    </text><text stroke="none" x="542" xml:space="preserve" y="168">    </text><text stroke="none" x="763" xml:space="preserve" y="168">    </text><text stroke="none" x="0" xml:space="preserve" y="224">    </text><text stroke="none" x="221" xml:space="preserve" y="224">    </text><text stroke="none" x="442" xml:space="preserve" y="224">    </text><text stroke="none" x="663" xml:space="preserve" y="224">    </text><text stroke="none" x="884" xml:space="preserve" y="224">    </text><text stroke="none" x="100" xml:space="preserve" y="280">    </text><text stroke="none" x="321" xml:space="preserve" y="280">    </text><text stroke="none" x="542" xml:space="preserve" y="280">    </text><text stroke="none" x="763" xml:space="preserve" y="280">    </text><text stroke="none" x="0" xml:space="preserve" y="336">    </text><text stroke="none" x="221" xml:space="preserve" y="336">    </text><text stroke="none" x="442" xml:space="preserve" y="336">    </text><text stroke="none" x="663" xml:space="preserve" y="336">    </text><text stroke="none" x="884" xml:space="preserve" y="336">    </text><text stroke="none" x="100" xml:space="preserve" y="392">    </text><text stroke="none" x="321" xml:space="preserve" y="392">    </text><text stroke="none" x="542" xml:space="preserve" y="392">    </text><text stroke="none" x="763" xml:space="preserve" y="392">    </text><text stroke="none" x="0" xml:space="preserve" y="448">    </text><text stroke="none" x="221" xml:space="preserve" y="448">    </text><text stroke="none" x="442" xml:space="preserve" y="448">    </text><text stroke="none" x="663" xml:space="preserve" y="448">    </text><text stroke="none" x="884" xml:space="preserve" y="448">    </text><text stroke="none" x="100" xml:space="preserve" y="504">    </text><text stroke="none" x="321" xml:space="preserve" y="504">    </text><text stroke="none" x="542" xml:space="preserve" y="504">    </text><text stroke="none" x="763" xml:space="preserve" y="504">    </text><text stroke="none" x="0" xml:space="preserve" y="560">    </text><text stroke="none" x="221" xml:space="preserve" y="560">    </text><text stroke="none" x="442" xml:space="preserve" y="560">    </text><text stroke="none" x="663" xml:space="preserve" y="560">    </text><text stroke="none" x="884" xml:space="preserve" y="560">    </text><text stroke="none" x="100" xml:space="preserve" y="616">    </text><text stroke="none" x="321" xml:space="preserve" y="616">    </text><text stroke="none" x="542" xml:space="preserve" y="616">    </text><text stroke="none" x="763" xml:space="preserve" y="616">    </text><text stroke="none" x="0" xml:space="preserve" y="672">    </text><text stroke="none" x="221" xml:space="preserve" y="672">    </text><text stroke="none" x="442" xml:space="preserve" y="672">    </text><text stroke="none" x="663" xml:space="preserve" y="672">    </text><text stroke="none" x="884" xml:space="preserve" y="672">    </text><text stroke="none" x="100" xml:space="preserve" y="728">    </text><text stroke="none" x="321" xml:space="preserve" y="728">    </text><text stroke="none" x="542" xml:space="preserve" y="728">    </text><text stroke="none" x="763" xml:space="preserve" y="728">    </text><text stroke="none" x="0" xml:space="preserve" y="784">    </text><text stroke="none" x="221" xml:space="preserve" y="784">    </text><text stroke="none" x="442" xml:space="preserve" y="784">    </text><text stroke="none" x="663" xml:space="preserve" y="784">    </text><text stroke="none" x="884" xml:space="preserve" y="784">    </text><text stroke="none" x="100" xml:space="preserve" y="840">    </text><text stroke="none" x="321" xml:space="preserve" y="840">    </text><text stroke="none" x="542" xml:space="preserve" y="840">    </text><text stroke="none" x="763" xml:space="preserve" y="840">    </text><text stroke="none" x="0" xml:space="preserve" y="896">    </text><text stroke="none" x="221" xml:space="preserve" y="896">    </text><text stroke="none" x="442" xml:space="preserve" y="896">    </text><text stroke="none" x="663" xml:space="preserve" y="896">    </text><text stroke="none" x="884" xml:space="preserve" y="896">    </text></g></g></svg>