<?xml version="1.0" encoding="UTF-8"?><svg xmlns="http://www.w3.org/2000/svg" xmlns:xlink="http://www.w3.org/1999/xlink" color-interpolation="auto" color-rendering="auto" fill="rgb(0,0,0)" fill-opacity="0" font-family="'Dialog'" font-size="12px" font-style="normal" font-weight="normal" height="414" image-rendering="auto" shape-rendering="auto" stroke="rgb(0,0,0)" stroke-dasharray="none" stroke-dashoffset="0" stroke-linecap="square" stroke-linejoin="miter" stroke-miterlimit="10" stroke-opacity="0" stroke-width="1" text-rendering="auto" viewbox="0 0 492 414" width="492"><!--Generated by the Batik Graphics2D SVG Generator--><defs id="genericDefs"/><g><defs id="defs1"><clipPath clipPathUnits="userSpaceOnUse" id="8df6a8b1-4e4a-424c-ab17-39ceed023f99"><path d="M-7 -7 L41 -7 L41 71 L-7 71 L-7 -7 Z"/></clipPath><clipPath clipPathUnits="userSpaceOnUse" id="7315ee98-bba4-4935-9874-8f3b153c12c0"><path d="M-7 -7 L41 -7 L41 71 L-7 71 L-7 -7 Z"/></clipPath><clipPath clipPathUnits="userSpaceOnUse" id="a594379a-b357-4152-939a-db6ffc04fb5e"><path d="M-7 -7 L41 -7 L41 71 L-7 71 L-7 -7 Z"/></clipPath><clipPath clipPathUnits="userSpaceOnUse" id="e98268e2-1d34-4b89-8dec-d13bae04df29"><path d="M-7 -7 L41 -7 L41 71 L-7 71 L-7 -7 Z"/></clipPath><clipPath clipPathUnits="userSpaceOnUse" id="48856a0f-2b6b-47bc-bb76-0d5bef462967"><path d="M-7 -7 L380 -7 L380 419 L-7 419 L-7 -7 Z"/></clipPath><clipPath clipPathUnits="userSpaceOnUse" id="8b1d62ba-3e9f-4162-8b27-cecd9fceb090"><path d="M-7 -7 L380 -7 L380 419 L-7 419 L-7 -7 Z"/></clipPath><clipPath clipPathUnits="userSpaceOnUse" id="76809db2-c68b-4a3d-b406-8ac1b545da02"><path d="M-7 -7 L380 -7 L380 419 L-7 419 L-7 -7 Z"/></clipPath><clipPath clipPathUnits="userSpaceOnUse" id="fd577b4c-b75e-42a6-986d-ce7d1d4f473c"><path d="M0 0 L0 408 L369 408 L369 0 Z"/></clipPath><clipPath clipPathUnits="userSpaceOnUse" id="cb23271c-1bc7-4084-8e23-1f913a8a6796"><path d="M-7 -7 L151 -7 L151 72 L-7 72 L-7 -7 Z"/></clipPath><clipPath clipPathUnits="userSpaceOnUse" id="4a4fec38-f7a2-45c0-85a3-39968707f0fc"><path d="M-7 -7 L151 -7 L151 72 L-7 72 L-7 -7 Z"/></clipPath><clipPath clipPathUnits="userSpaceOnUse" id="4a7c1f26-09ef-4185-9af5-949997af9164"><path d="M-7 -7 L151 -7 L151 72 L-7 72 L-7 -7 Z"/></clipPath><clipPath clipPathUnits="userSpaceOnUse" id="93af7790-108d-4742-9ad3-3c0e9622734a"><path d="M0 0 L0 40 L140 40 L140 0 Z"/></clipPath><clipPath clipPathUnits="userSpaceOnUse" id="ee43547e-5e37-4977-8d34-5cc2a96203b3"><path d="M0 0 L0 15 L140 15 L140 0 Z"/></clipPath><clipPath clipPathUnits="userSpaceOnUse" id="c8a880dc-dc13-4a0d-ba2d-846c76ecf2a0"><path d="M0 0 L0 19 L140 19 L140 0 Z"/></clipPath><clipPath clipPathUnits="userSpaceOnUse" id="6d7bc248-7c45-47bb-a7dc-2085eef6cf63"><path d="M0 0 L0 21 L140 21 L140 0 Z"/></clipPath><clipPath clipPathUnits="userSpaceOnUse" id="ee1269b6-041d-40b2-a27a-9d78ef7277be"><path d="M-7 -7 L124 -7 L124 51 L-7 51 L-7 -7 Z"/></clipPath><clipPath clipPathUnits="userSpaceOnUse" id="b45f9588-abef-4297-aa8c-62f9b70a25a1"><path d="M-7 -7 L124 -7 L124 51 L-7 51 L-7 -7 Z"/></clipPath><clipPath clipPathUnits="userSpaceOnUse" id="b5d94415-b89d-433d-b5f6-e9d4c7519a94"><path d="M-7 -7 L124 -7 L124 51 L-7 51 L-7 -7 Z"/></clipPath><clipPath clipPathUnits="userSpaceOnUse" id="1af3d0dd-c9f8-4564-9e1c-eec39df50c7f"><path d="M0 0 L0 40 L113 40 L113 0 Z"/></clipPath><clipPath clipPathUnits="userSpaceOnUse" id="fa3df03d-a140-4821-abef-ee3b8d575b3f"><path d="M-7 -7 L129 -7 L129 51 L-7 51 L-7 -7 Z"/></clipPath><clipPath clipPathUnits="userSpaceOnUse" id="62d76aa2-0bbc-4931-acd9-773260a5206b"><path d="M-7 -7 L129 -7 L129 51 L-7 51 L-7 -7 Z"/></clipPath><clipPath clipPathUnits="userSpaceOnUse" id="2ad2a759-6bfa-4308-8460-b34d1357faa2"><path d="M-7 -7 L129 -7 L129 51 L-7 51 L-7 -7 Z"/></clipPath><clipPath clipPathUnits="userSpaceOnUse" id="83b0f24a-c7b3-4ac5-baa6-f7a93efe4dd4"><path d="M0 0 L0 40 L118 40 L118 0 Z"/></clipPath><clipPath clipPathUnits="userSpaceOnUse" id="ea6d905e-91ad-40eb-af4d-61aa42bf8fc4"><path d="M-7 -7 L113 -7 L113 51 L-7 51 L-7 -7 Z"/></clipPath><clipPath clipPathUnits="userSpaceOnUse" id="41f12e7f-141a-49a6-b07d-9e4f3524fdb2"><path d="M-7 -7 L113 -7 L113 51 L-7 51 L-7 -7 Z"/></clipPath><clipPath clipPathUnits="userSpaceOnUse" id="6bb18d59-9ac0-498b-af74-040696001cc3"><path d="M-7 -7 L113 -7 L113 51 L-7 51 L-7 -7 Z"/></clipPath><clipPath clipPathUnits="userSpaceOnUse" id="376d623c-97dc-42f7-978a-7e7f7e0e9430"><path d="M0 0 L0 40 L102 40 L102 0 Z"/></clipPath><clipPath clipPathUnits="userSpaceOnUse" id="a8cd03c8-67cf-498c-add4-f0f0ca2305fc"><path d="M-7 -7 L109 -7 L109 51 L-7 51 L-7 -7 Z"/></clipPath><clipPath clipPathUnits="userSpaceOnUse" id="81a9408c-15ac-4848-9bb6-236f420eb546"><path d="M-7 -7 L109 -7 L109 51 L-7 51 L-7 -7 Z"/></clipPath><clipPath clipPathUnits="userSpaceOnUse" id="180a079f-9b69-4f49-9d72-56c68665e009"><path d="M-7 -7 L109 -7 L109 51 L-7 51 L-7 -7 Z"/></clipPath><clipPath clipPathUnits="userSpaceOnUse" id="b113443a-af49-4e2e-b9ab-16e1b68c06c2"><path d="M0 0 L0 40 L98 40 L98 0 Z"/></clipPath><clipPath clipPathUnits="userSpaceOnUse" id="b53bcfb5-28c0-47b2-a230-c9ea5d58780f"><path d="M-7 -7 L99 -7 L99 51 L-7 51 L-7 -7 Z"/></clipPath><clipPath clipPathUnits="userSpaceOnUse" id="58fa6a61-753f-4160-a2fd-23517128ebe1"><path d="M-7 -7 L99 -7 L99 51 L-7 51 L-7 -7 Z"/></clipPath><clipPath clipPathUnits="userSpaceOnUse" id="0898b431-82ef-4609-8428-3548d0e9509d"><path d="M-7 -7 L99 -7 L99 51 L-7 51 L-7 -7 Z"/></clipPath><clipPath clipPathUnits="userSpaceOnUse" id="3d786d84-5745-4da1-8f77-8b9be14d6c2e"><path d="M0 0 L0 40 L88 40 L88 0 Z"/></clipPath><clipPath clipPathUnits="userSpaceOnUse" id="516ce924-7744-429b-9e7f-3de062134a32"><path d="M-7 -7 L116 -7 L116 51 L-7 51 L-7 -7 Z"/></clipPath><clipPath clipPathUnits="userSpaceOnUse" id="66925cb2-80a5-46aa-a3c6-c09ea5d82a8e"><path d="M-7 -7 L116 -7 L116 51 L-7 51 L-7 -7 Z"/></clipPath><clipPath clipPathUnits="userSpaceOnUse" id="af2599af-2fd3-41d3-9379-c5b3b4520950"><path d="M-7 -7 L116 -7 L116 51 L-7 51 L-7 -7 Z"/></clipPath><clipPath clipPathUnits="userSpaceOnUse" id="a591c2c1-b60f-4f1a-a23f-12809bb23738"><path d="M0 0 L0 40 L105 40 L105 0 Z"/></clipPath><clipPath clipPathUnits="userSpaceOnUse" id="5e6b638a-0edd-4fff-a802-961da3237fc1"><path d="M-7 -7 L111 -7 L111 51 L-7 51 L-7 -7 Z"/></clipPath><clipPath clipPathUnits="userSpaceOnUse" id="8ede5895-ae3d-421b-b0fd-24f48517c7a6"><path d="M-7 -7 L111 -7 L111 51 L-7 51 L-7 -7 Z"/></clipPath><clipPath clipPathUnits="userSpaceOnUse" id="8dc52ce2-064e-4012-a4d2-43e1d51c9cf8"><path d="M-7 -7 L111 -7 L111 51 L-7 51 L-7 -7 Z"/></clipPath><clipPath clipPathUnits="userSpaceOnUse" id="ecceaa8c-704a-47b9-a93b-8f975569e1af"><path d="M0 0 L0 40 L100 40 L100 0 Z"/></clipPath><clipPath clipPathUnits="userSpaceOnUse" id="add94da4-d287-41e7-949c-d898f6e5e3ec"><path d="M-79 -15 L158 -15 L158 30 L-79 30 L-79 -15 Z"/></clipPath><clipPath clipPathUnits="userSpaceOnUse" id="d864915d-8239-4fc3-9e2a-ee7a3015cd36"><path d="M-53 -15 L106 -15 L106 30 L-53 30 L-53 -15 Z"/></clipPath><clipPath clipPathUnits="userSpaceOnUse" id="f6e76466-4772-4912-9562-a4176e14d04c"><path d="M0 0 L104 0 L104 208 L0 208 L0 0 Z"/></clipPath><clipPath clipPathUnits="userSpaceOnUse" id="7a7cc07a-ce6e-4292-86b6-04d097825074"><path d="M88 33 L88 48 L9 48 L9 33 ZM0 0 L0 208 L104 208 L104 0 Z"/></clipPath><clipPath clipPathUnits="userSpaceOnUse" id="e4b5dcb5-2ee7-4aba-ba9f-3cb57ac54e70"><path d="M0 0 L212 0 L212 144 L0 144 L0 0 Z"/></clipPath><clipPath clipPathUnits="userSpaceOnUse" id="255c22ba-5515-448e-9239-f186a892bff1"><path d="M0 0 L0 33 L48 33 L48 48 L0 48 L0 144 L212 144 L212 0 Z"/></clipPath><clipPath clipPathUnits="userSpaceOnUse" id="794ede68-b12b-48a2-8114-8844af004a87"><path d="M0 0 L254 0 L254 104 L0 104 L0 0 Z"/></clipPath><clipPath clipPathUnits="userSpaceOnUse" id="781bfd14-ea39-4a2b-bfb5-e7f99d676faf"><path d="M62 79 L62 94 L9 94 L9 79 ZM0 0 L0 104 L254 104 L254 0 Z"/></clipPath><clipPath clipPathUnits="userSpaceOnUse" id="11a6f711-166d-4317-b61d-04ce5fe2ffd4"><path d="M0 0 L180 0 L180 138 L0 138 L0 0 Z"/></clipPath><clipPath clipPathUnits="userSpaceOnUse" id="fbe5c82e-0598-49c6-be60-0b1cded91398"><path d="M0 0 L0 133 L75 133 L75 138 L180 138 L180 0 Z"/></clipPath><clipPath clipPathUnits="userSpaceOnUse" id="db7881de-9e8e-48bf-8296-3f0fcc2c56b1"><path d="M0 0 L195 0 L195 155 L0 155 L0 0 Z"/></clipPath><clipPath clipPathUnits="userSpaceOnUse" id="533fca6d-0bfe-46fa-a199-77063b71b7d3"><path d="M0 0 L0 155 L195 155 L195 75 L87 75 L87 30 L195 30 L195 0 Z"/></clipPath><clipPath clipPathUnits="userSpaceOnUse" id="03f29685-3b98-45af-befe-4ce835bc096f"><path d="M0 0 L172 0 L172 104 L0 104 L0 0 Z"/></clipPath><clipPath clipPathUnits="userSpaceOnUse" id="29f0fe89-d08c-4f76-8178-e51649ba0a1b"><path d="M0 0 L0 33 L48 33 L48 48 L0 48 L0 104 L172 104 L172 0 Z"/></clipPath><clipPath clipPathUnits="userSpaceOnUse" id="bfabd454-f473-41da-a06b-b2716e1b528a"><path d="M0 0 L191 0 L191 104 L0 104 L0 0 Z"/></clipPath><clipPath clipPathUnits="userSpaceOnUse" id="f4414f76-8d6b-42ba-be5f-40091ca0ff09"><path d="M0 0 L0 80 L75 80 L75 95 L0 95 L0 104 L191 104 L191 0 Z"/></clipPath><clipPath clipPathUnits="userSpaceOnUse" id="d628fca2-0f6a-4999-bc36-1ed86775a32d"><path d="M0 0 L184 0 L184 144 L0 144 L0 0 Z"/></clipPath><clipPath clipPathUnits="userSpaceOnUse" id="45760828-fdff-45dd-b7e2-11b3906d1a41"><path d="M0 0 L0 33 L48 33 L48 48 L0 48 L0 144 L184 144 L184 0 Z"/></clipPath><clipPath clipPathUnits="userSpaceOnUse" id="1c01da37-9c14-4ee2-97df-803b4e6cc04b"><path d="M0 0 L206 0 L206 104 L0 104 L0 0 Z"/></clipPath><clipPath clipPathUnits="userSpaceOnUse" id="8afbfd99-7d88-4080-b3e8-41982bc0ff0a"><path d="M0 0 L0 48 L48 48 L48 63 L0 63 L0 104 L206 104 L206 0 Z"/></clipPath><clipPath clipPathUnits="userSpaceOnUse" id="b42a9157-8083-4c30-b88f-d79dde2b5868"><path d="M-191 -45 L382 -45 L382 90 L-191 90 L-191 -45 Z"/></clipPath></defs><g fill="white" fill-opacity="1" stroke="white" stroke-opacity="1" text-rendering="geometricPrecision"><rect height="414" stroke="none" width="492" x="0" y="0"/></g><g data="{&quot;name&quot;:&quot;Funcionário&quot;,&quot;modelType&quot;:&quot;Actor&quot;}" hyper="" model-id="shape-RKr1YvmGAqACZBFf" style="pointer-events: auto; cursor: pointer;"><g fill="rgb(122,207,245)" fill-opacity="1" font-family="sans-serif" font-size="11px" image-rendering="optimizeQuality" stroke="rgb(122,207,245)" stroke-opacity="1" text-rendering="geometricPrecision" transform="translate(26,77)"><circle clip-path="url(#7315ee98-bba4-4935-9874-8f3b153c12c0)" cx="14.5" cy="7.5" r="7.5" stroke="none"/></g><g fill="black" fill-opacity="1" font-family="sans-serif" font-size="11px" image-rendering="optimizeQuality" stroke="black" stroke-linecap="butt" stroke-linejoin="round" stroke-miterlimit="0" stroke-opacity="1" text-rendering="geometricPrecision" transform="translate(26,77)"><circle clip-path="url(#7315ee98-bba4-4935-9874-8f3b153c12c0)" cx="14.5" cy="7.5" fill="none" r="7.5"/><line clip-path="url(#7315ee98-bba4-4935-9874-8f3b153c12c0)" fill="none" x1="15" x2="15" y1="15" y2="40"/><line clip-path="url(#7315ee98-bba4-4935-9874-8f3b153c12c0)" fill="none" x1="0" x2="30" y1="24" y2="24"/><line clip-path="url(#7315ee98-bba4-4935-9874-8f3b153c12c0)" fill="none" x1="15" x2="0" y1="40" y2="60"/><line clip-path="url(#7315ee98-bba4-4935-9874-8f3b153c12c0)" fill="none" x1="15" x2="30" y1="40" y2="60"/></g></g><g data="{&quot;name&quot;:&quot;Actor2&quot;,&quot;modelType&quot;:&quot;Actor&quot;}" hyper="" model-id="shape-YLr1YvmGAqACZBFq" style="pointer-events: auto; cursor: pointer;"><g fill="rgb(122,207,245)" fill-opacity="1" font-family="sans-serif" font-size="11px" image-rendering="optimizeQuality" stroke="rgb(122,207,245)" stroke-opacity="1" text-rendering="geometricPrecision" transform="translate(27,259)"><circle clip-path="url(#e98268e2-1d34-4b89-8dec-d13bae04df29)" cx="14.5" cy="7.5" r="7.5" stroke="none"/></g><g fill="black" fill-opacity="1" font-family="sans-serif" font-size="11px" image-rendering="optimizeQuality" stroke="black" stroke-linecap="butt" stroke-linejoin="round" stroke-miterlimit="0" stroke-opacity="1" text-rendering="geometricPrecision" transform="translate(27,259)"><circle clip-path="url(#e98268e2-1d34-4b89-8dec-d13bae04df29)" cx="14.5" cy="7.5" fill="none" r="7.5"/><line clip-path="url(#e98268e2-1d34-4b89-8dec-d13bae04df29)" fill="none" x1="15" x2="15" y1="15" y2="40"/><line clip-path="url(#e98268e2-1d34-4b89-8dec-d13bae04df29)" fill="none" x1="0" x2="30" y1="24" y2="24"/><line clip-path="url(#e98268e2-1d34-4b89-8dec-d13bae04df29)" fill="none" x1="15" x2="0" y1="40" y2="60"/><line clip-path="url(#e98268e2-1d34-4b89-8dec-d13bae04df29)" fill="none" x1="15" x2="30" y1="40" y2="60"/></g></g><g data="{&quot;name&quot;:&quot;Sistema&quot;,&quot;modelType&quot;:&quot;System&quot;}" hyper="" model-id="shape-z0nNYvmGAqACZBGS" style="pointer-events: auto; cursor: pointer;"><g fill="rgb(122,207,245)" fill-opacity="1" font-family="sans-serif" font-size="11px" image-rendering="optimizeQuality" stroke="rgb(122,207,245)" stroke-opacity="1" text-rendering="geometricPrecision" transform="translate(119,2)"><rect clip-path="url(#8b1d62ba-3e9f-4162-8b27-cecd9fceb090)" height="407" stroke="none" width="368" x="0" y="0"/></g><g fill="black" fill-opacity="1" font-family="sans-serif" font-size="11px" image-rendering="optimizeQuality" stroke="black" stroke-linecap="butt" stroke-linejoin="round" stroke-miterlimit="0" stroke-opacity="1" text-rendering="geometricPrecision" transform="translate(119,2)"><rect clip-path="url(#8b1d62ba-3e9f-4162-8b27-cecd9fceb090)" fill="none" height="407" width="368" x="0" y="0"/></g></g><g fill="black" fill-opacity="1" font-family="sans-serif" font-size="11px" image-rendering="optimizeQuality" stroke="black" stroke-opacity="1" text-rendering="geometricPrecision" transform="translate(119,2)"><text clip-path="url(#fd577b4c-b75e-42a6-986d-ce7d1d4f473c)" stroke="none" x="164" xml:space="preserve" y="12">Sistema</text></g><g data="{&quot;name&quot;:&quot;Registar Pedido&quot;,&quot;modelType&quot;:&quot;UseCase&quot;}" hyper="" model-id="shape-WYWZ4vmGAqACZBIG" style="pointer-events: auto; cursor: pointer;"><g fill="rgb(122,207,245)" fill-opacity="1" font-family="sans-serif" font-size="11px" image-rendering="optimizeQuality" stroke="rgb(122,207,245)" stroke-opacity="1" text-rendering="geometricPrecision" transform="translate(132,16)"><ellipse clip-path="url(#4a4fec38-f7a2-45c0-85a3-39968707f0fc)" cx="70" cy="30.5" rx="70" ry="30.5" stroke="none"/></g><g fill="black" fill-opacity="1" font-family="sans-serif" font-size="11px" image-rendering="optimizeQuality" stroke="black" stroke-linecap="butt" stroke-linejoin="round" stroke-miterlimit="0" stroke-opacity="1" text-rendering="geometricPrecision" transform="translate(132,16)"><ellipse clip-path="url(#4a4fec38-f7a2-45c0-85a3-39968707f0fc)" cx="70" cy="30.5" fill="none" rx="70" ry="30.5"/></g></g><g fill="black" fill-opacity="1" font-family="sans-serif" font-size="11px" image-rendering="optimizeQuality" stroke="black" stroke-linecap="butt" stroke-linejoin="round" stroke-miterlimit="0" stroke-opacity="1" text-rendering="geometricPrecision" transform="translate(132,37)"><line clip-path="url(#93af7790-108d-4742-9ad3-3c0e9622734a)" fill="none" x1="3" x2="136" y1="0" y2="0"/></g><g fill="black" fill-opacity="1" font-family="sans-serif" font-size="11px" image-rendering="optimizeQuality" stroke="black" stroke-opacity="1" text-rendering="geometricPrecision" transform="translate(132,56)"><text clip-path="url(#ee43547e-5e37-4977-8d34-5cc2a96203b3)" stroke="none" x="30" xml:space="preserve" y="12">personalizações</text></g><g fill="black" fill-opacity="1" font-family="sans-serif" font-size="11px" font-weight="bold" image-rendering="optimizeQuality" stroke="black" stroke-opacity="1" text-rendering="geometricPrecision" transform="translate(132,37)"><text clip-path="url(#c8a880dc-dc13-4a0d-ba2d-846c76ecf2a0)" stroke="none" x="24" xml:space="preserve" y="16">extension points</text></g><g fill="black" fill-opacity="1" font-family="sans-serif" font-size="11px" image-rendering="optimizeQuality" stroke="black" stroke-opacity="1" text-rendering="geometricPrecision" transform="translate(132,16)"><text clip-path="url(#6d7bc248-7c45-47bb-a7dc-2085eef6cf63)" stroke="none" x="30" xml:space="preserve" y="15">Registar Pedido</text></g><g data="{&quot;name&quot;:&quot;Personalizar Produto&quot;,&quot;modelType&quot;:&quot;UseCase&quot;}" hyper="" model-id="shape-m06F4vmGAqACZBIi" style="pointer-events: auto; cursor: pointer;"><g fill="rgb(122,207,245)" fill-opacity="1" font-family="sans-serif" font-size="11px" image-rendering="optimizeQuality" stroke="rgb(122,207,245)" stroke-opacity="1" text-rendering="geometricPrecision" transform="translate(346,97)"><ellipse clip-path="url(#b45f9588-abef-4297-aa8c-62f9b70a25a1)" cx="56.5" cy="20" rx="56.5" ry="20" stroke="none"/></g><g fill="black" fill-opacity="1" font-family="sans-serif" font-size="11px" image-rendering="optimizeQuality" stroke="black" stroke-linecap="butt" stroke-linejoin="round" stroke-miterlimit="0" stroke-opacity="1" text-rendering="geometricPrecision" transform="translate(346,97)"><ellipse clip-path="url(#b45f9588-abef-4297-aa8c-62f9b70a25a1)" cx="56.5" cy="20" fill="none" rx="56.5" ry="20"/></g></g><g fill="black" fill-opacity="1" font-family="sans-serif" font-size="11px" image-rendering="optimizeQuality" stroke="black" stroke-opacity="1" text-rendering="geometricPrecision" transform="translate(346,97)"><text clip-path="url(#1af3d0dd-c9f8-4564-9e1c-eec39df50c7f)" stroke="none" x="5" xml:space="preserve" y="24">Personalizar Produto</text></g><g data="{&quot;name&quot;:&quot;Consultar Pedidos Pendentes&quot;,&quot;modelType&quot;:&quot;UseCase&quot;}" hyper="" model-id="shape-iEAl4vmGAqACZBJP" style="pointer-events: auto; cursor: pointer;"><g fill="rgb(122,207,245)" fill-opacity="1" font-family="sans-serif" font-size="11px" image-rendering="optimizeQuality" stroke="rgb(122,207,245)" stroke-opacity="1" text-rendering="geometricPrecision" transform="translate(143,87)"><ellipse clip-path="url(#62d76aa2-0bbc-4931-acd9-773260a5206b)" cx="59" cy="20" rx="59" ry="20" stroke="none"/></g><g fill="black" fill-opacity="1" font-family="sans-serif" font-size="11px" image-rendering="optimizeQuality" stroke="black" stroke-linecap="butt" stroke-linejoin="round" stroke-miterlimit="0" stroke-opacity="1" text-rendering="geometricPrecision" transform="translate(143,87)"><ellipse clip-path="url(#62d76aa2-0bbc-4931-acd9-773260a5206b)" cx="59" cy="20" fill="none" rx="59" ry="20"/></g></g><g fill="black" fill-opacity="1" font-family="sans-serif" font-size="11px" image-rendering="optimizeQuality" stroke="black" stroke-opacity="1" text-rendering="geometricPrecision" transform="translate(143,87)"><text clip-path="url(#83b0f24a-c7b3-4ac5-baa6-f7a93efe4dd4)" stroke="none" x="13" xml:space="preserve" y="17">Consultar Pedidos</text><text clip-path="url(#83b0f24a-c7b3-4ac5-baa6-f7a93efe4dd4)" stroke="none" x="32" xml:space="preserve" y="32">Pendentes</text></g><g data="{&quot;name&quot;:&quot;Avançar Estado do Pedido&quot;,&quot;modelType&quot;:&quot;UseCase&quot;}" hyper="" model-id="shape-mC4l4vmGAqACZBJn" style="pointer-events: auto; cursor: pointer;"><g fill="rgb(122,207,245)" fill-opacity="1" font-family="sans-serif" font-size="11px" image-rendering="optimizeQuality" stroke="rgb(122,207,245)" stroke-opacity="1" text-rendering="geometricPrecision" transform="translate(151,137)"><ellipse clip-path="url(#41f12e7f-141a-49a6-b07d-9e4f3524fdb2)" cx="51" cy="20" rx="51" ry="20" stroke="none"/></g><g fill="black" fill-opacity="1" font-family="sans-serif" font-size="11px" image-rendering="optimizeQuality" stroke="black" stroke-linecap="butt" stroke-linejoin="round" stroke-miterlimit="0" stroke-opacity="1" text-rendering="geometricPrecision" transform="translate(151,137)"><ellipse clip-path="url(#41f12e7f-141a-49a6-b07d-9e4f3524fdb2)" cx="51" cy="20" fill="none" rx="51" ry="20"/></g></g><g fill="black" fill-opacity="1" font-family="sans-serif" font-size="11px" image-rendering="optimizeQuality" stroke="black" stroke-opacity="1" text-rendering="geometricPrecision" transform="translate(151,137)"><text clip-path="url(#376d623c-97dc-42f7-978a-7e7f7e0e9430)" stroke="none" x="11" xml:space="preserve" y="17">Avançar Estado</text><text clip-path="url(#376d623c-97dc-42f7-978a-7e7f7e0e9430)" stroke="none" x="25" xml:space="preserve" y="32">do Pedido</text></g><g data="{&quot;name&quot;:&quot;Consultar Estatísticas&quot;,&quot;modelType&quot;:&quot;UseCase&quot;}" hyper="" model-id="shape-K20l4vmGAqACZBJ7" style="pointer-events: auto; cursor: pointer;"><g fill="rgb(122,207,245)" fill-opacity="1" font-family="sans-serif" font-size="11px" image-rendering="optimizeQuality" stroke="rgb(122,207,245)" stroke-opacity="1" text-rendering="geometricPrecision" transform="translate(174,251)"><ellipse clip-path="url(#81a9408c-15ac-4848-9bb6-236f420eb546)" cx="49" cy="20" rx="49" ry="20" stroke="none"/></g><g fill="black" fill-opacity="1" font-family="sans-serif" font-size="11px" image-rendering="optimizeQuality" stroke="black" stroke-linecap="butt" stroke-linejoin="round" stroke-miterlimit="0" stroke-opacity="1" text-rendering="geometricPrecision" transform="translate(174,251)"><ellipse clip-path="url(#81a9408c-15ac-4848-9bb6-236f420eb546)" cx="49" cy="20" fill="none" rx="49" ry="20"/></g></g><g fill="black" fill-opacity="1" font-family="sans-serif" font-size="11px" image-rendering="optimizeQuality" stroke="black" stroke-opacity="1" text-rendering="geometricPrecision" transform="translate(174,251)"><text clip-path="url(#b113443a-af49-4e2e-b9ab-16e1b68c06c2)" stroke="none" x="25" xml:space="preserve" y="17">Consultar</text><text clip-path="url(#b113443a-af49-4e2e-b9ab-16e1b68c06c2)" stroke="none" x="20" xml:space="preserve" y="32">Estatísticas</text></g><g data="{&quot;name&quot;:&quot;Consultar Stock&quot;,&quot;modelType&quot;:&quot;UseCase&quot;}" hyper="" model-id="shape-Op8l4vmGAqACZBKP" style="pointer-events: auto; cursor: pointer;"><g fill="rgb(122,207,245)" fill-opacity="1" font-family="sans-serif" font-size="11px" image-rendering="optimizeQuality" stroke="rgb(122,207,245)" stroke-opacity="1" text-rendering="geometricPrecision" transform="translate(179,356)"><ellipse clip-path="url(#58fa6a61-753f-4160-a2fd-23517128ebe1)" cx="44" cy="20" rx="44" ry="20" stroke="none"/></g><g fill="black" fill-opacity="1" font-family="sans-serif" font-size="11px" image-rendering="optimizeQuality" stroke="black" stroke-linecap="butt" stroke-linejoin="round" stroke-miterlimit="0" stroke-opacity="1" text-rendering="geometricPrecision" transform="translate(179,356)"><ellipse clip-path="url(#58fa6a61-753f-4160-a2fd-23517128ebe1)" cx="44" cy="20" fill="none" rx="44" ry="20"/></g></g><g fill="black" fill-opacity="1" font-family="sans-serif" font-size="11px" image-rendering="optimizeQuality" stroke="black" stroke-opacity="1" text-rendering="geometricPrecision" transform="translate(179,356)"><text clip-path="url(#3d786d84-5745-4da1-8f77-8b9be14d6c2e)" stroke="none" x="5" xml:space="preserve" y="24">Consultar Stock</text></g><g data="{&quot;name&quot;:&quot;Consultar Produtos&quot;,&quot;modelType&quot;:&quot;UseCase&quot;}" hyper="" model-id="shape-UQtS6vmGAqACZAiR" style="pointer-events: auto; cursor: pointer;"><g fill="rgb(122,207,245)" fill-opacity="1" font-family="sans-serif" font-size="11px" image-rendering="optimizeQuality" stroke="rgb(122,207,245)" stroke-opacity="1" text-rendering="geometricPrecision" transform="translate(150,187)"><ellipse clip-path="url(#66925cb2-80a5-46aa-a3c6-c09ea5d82a8e)" cx="52.5" cy="20" rx="52.5" ry="20" stroke="none"/></g><g fill="black" fill-opacity="1" font-family="sans-serif" font-size="11px" image-rendering="optimizeQuality" stroke="black" stroke-linecap="butt" stroke-linejoin="round" stroke-miterlimit="0" stroke-opacity="1" text-rendering="geometricPrecision" transform="translate(150,187)"><ellipse clip-path="url(#66925cb2-80a5-46aa-a3c6-c09ea5d82a8e)" cx="52.5" cy="20" fill="none" rx="52.5" ry="20"/></g></g><g fill="black" fill-opacity="1" font-family="sans-serif" font-size="11px" image-rendering="optimizeQuality" stroke="black" stroke-opacity="1" text-rendering="geometricPrecision" transform="translate(150,187)"><text clip-path="url(#a591c2c1-b60f-4f1a-a23f-12809bb23738)" stroke="none" x="4" xml:space="preserve" y="24">Consultar Produtos</text></g><g data="{&quot;name&quot;:&quot;Consultar Pedidos&quot;,&quot;modelType&quot;:&quot;UseCase&quot;}" hyper="" model-id="shape-ns_S6vmGAqACZAjT" style="pointer-events: auto; cursor: pointer;"><g fill="rgb(122,207,245)" fill-opacity="1" font-family="sans-serif" font-size="11px" image-rendering="optimizeQuality" stroke="rgb(122,207,245)" stroke-opacity="1" text-rendering="geometricPrecision" transform="translate(173,303)"><ellipse clip-path="url(#8ede5895-ae3d-421b-b0fd-24f48517c7a6)" cx="50" cy="20" rx="50" ry="20" stroke="none"/></g><g fill="black" fill-opacity="1" font-family="sans-serif" font-size="11px" image-rendering="optimizeQuality" stroke="black" stroke-linecap="butt" stroke-linejoin="round" stroke-miterlimit="0" stroke-opacity="1" text-rendering="geometricPrecision" transform="translate(173,303)"><ellipse clip-path="url(#8ede5895-ae3d-421b-b0fd-24f48517c7a6)" cx="50" cy="20" fill="none" rx="50" ry="20"/></g></g><g fill="black" fill-opacity="1" font-family="sans-serif" font-size="11px" image-rendering="optimizeQuality" stroke="black" stroke-opacity="1" text-rendering="geometricPrecision" transform="translate(173,303)"><text clip-path="url(#ecceaa8c-704a-47b9-a93b-8f975569e1af)" stroke="none" x="5" xml:space="preserve" y="24">Consultar Pedidos</text></g><g fill="black" fill-opacity="1" font-family="sans-serif" font-size="11px" image-rendering="optimizeQuality" stroke="black" stroke-opacity="1" text-rendering="geometricPrecision" transform="translate(2,137)"><text clip-path="url(#add94da4-d287-41e7-949c-d898f6e5e3ec)" stroke="none" x="10" xml:space="preserve" y="12">Funcionário</text></g><g fill="black" fill-opacity="1" font-family="sans-serif" font-size="11px" image-rendering="optimizeQuality" stroke="black" stroke-opacity="1" text-rendering="geometricPrecision" transform="translate(16,319)"><text clip-path="url(#d864915d-8239-4fc3-9e2a-ee7a3015cd36)" stroke="none" x="10" xml:space="preserve" y="12">Actor2</text></g><g data="{&quot;modelType&quot;:&quot;Generalization&quot;}" hyper="" model-id="connector-Jun1YvmGAqACZBGA" style="pointer-events: auto; cursor: pointer;"><g fill="black" fill-opacity="1" font-family="sans-serif" font-size="11px" image-rendering="optimizeQuality" stroke="black" stroke-linecap="butt" stroke-linejoin="round" stroke-opacity="1" text-rendering="geometricPrecision" transform="translate(-7,104)"><line clip-path="url(#7a7cc07a-ce6e-4292-86b6-04d097825074)" fill="none" x1="50" x2="50" y1="50" y2="154"/><polygon clip-path="url(#7a7cc07a-ce6e-4292-86b6-04d097825074)" fill="white" points=" 50 50 44 62 56 62" stroke="none"/><polygon clip-path="url(#7a7cc07a-ce6e-4292-86b6-04d097825074)" fill="none" points=" 50 50 44 62 56 62"/></g></g><g data="{&quot;modelType&quot;:&quot;Association&quot;}" hyper="" model-id="connector-EuOl4vmGAqACZBLH" style="pointer-events: auto; cursor: pointer;"><g fill="black" fill-opacity="1" font-family="sans-serif" font-size="11px" image-rendering="optimizeQuality" stroke="black" stroke-linecap="butt" stroke-linejoin="round" stroke-opacity="1" text-rendering="geometricPrecision" transform="translate(21,286)"><line clip-path="url(#255c22ba-5515-448e-9239-f186a892bff1)" fill="none" x1="50" x2="158" y1="50" y2="90"/></g></g><g data="{&quot;modelType&quot;:&quot;Association&quot;}" hyper="" model-id="connector-qiul4vmGAqACZBLR" style="pointer-events: auto; cursor: pointer;"><g fill="black" fill-opacity="1" font-family="sans-serif" font-size="11px" image-rendering="optimizeQuality" stroke="black" stroke-linecap="butt" stroke-linejoin="round" stroke-opacity="1" text-rendering="geometricPrecision" transform="translate(7,240)"><line clip-path="url(#781bfd14-ea39-4a2b-bfb5-e7f99d676faf)" fill="none" x1="200" x2="50" y1="50" y2="50"/></g></g><g data="{&quot;modelType&quot;:&quot;Association&quot;}" hyper="" model-id="connector-FO.l4vmGAqACZBLd" style="pointer-events: auto; cursor: pointer;"><g fill="black" fill-opacity="1" font-family="sans-serif" font-size="11px" image-rendering="optimizeQuality" stroke="black" stroke-linecap="butt" stroke-linejoin="round" stroke-opacity="1" text-rendering="geometricPrecision" transform="translate(6,4)"><line clip-path="url(#fbe5c82e-0598-49c6-be60-0b1cded91398)" fill="none" x1="126" x2="50" y1="50" y2="84"/></g></g><g data="{&quot;name&quot;:&quot;(personalizações)&quot;,&quot;modelType&quot;:&quot;Extend&quot;}" hyper="" model-id="connector-.4Rl4vmGAqACZBLs" style="pointer-events: auto; cursor: pointer;"><g fill="black" fill-opacity="1" font-family="sans-serif" font-size="11px" image-rendering="optimizeQuality" stroke="black" stroke-dasharray="4" stroke-linecap="butt" stroke-linejoin="round" stroke-opacity="1" text-rendering="geometricPrecision" transform="translate(205,17)"><line clip-path="url(#533fca6d-0bfe-46fa-a199-77063b71b7d3)" fill="none" x1="141" x2="50" y1="101" y2="50"/><line clip-path="url(#533fca6d-0bfe-46fa-a199-77063b71b7d3)" fill="none" stroke-dasharray="none" x1="50" x2="57" y1="50" y2="60"/><line clip-path="url(#533fca6d-0bfe-46fa-a199-77063b71b7d3)" fill="none" stroke-dasharray="none" x1="50" x2="63" y1="50" y2="49"/></g></g><g data="{&quot;modelType&quot;:&quot;Association&quot;}" hyper="" model-id="connector-iOIN4vmGAqACZBPE" style="pointer-events: auto; cursor: pointer;"><g fill="black" fill-opacity="1" font-family="sans-serif" font-size="11px" image-rendering="optimizeQuality" stroke="black" stroke-linecap="butt" stroke-linejoin="round" stroke-opacity="1" text-rendering="geometricPrecision" transform="translate(33,104)"><line clip-path="url(#29f0fe89-d08c-4f76-8178-e51649ba0a1b)" fill="none" x1="118" x2="50" y1="50" y2="50"/></g></g><g data="{&quot;modelType&quot;:&quot;Association&quot;}" hyper="" model-id="connector-DwoN4vmGAqACZBPM" style="pointer-events: auto; cursor: pointer;"><g fill="black" fill-opacity="1" font-family="sans-serif" font-size="11px" image-rendering="optimizeQuality" stroke="black" stroke-linecap="butt" stroke-linejoin="round" stroke-opacity="1" text-rendering="geometricPrecision" transform="translate(6,57)"><line clip-path="url(#f4414f76-8d6b-42ba-be5f-40091ca0ff09)" fill="none" x1="137" x2="50" y1="50" y2="50"/></g></g><g data="{&quot;modelType&quot;:&quot;Association&quot;}" hyper="" model-id="connector-IAnS6vmGAqACZAjH" style="pointer-events: auto; cursor: pointer;"><g fill="black" fill-opacity="1" font-family="sans-serif" font-size="11px" image-rendering="optimizeQuality" stroke="black" stroke-linecap="butt" stroke-linejoin="round" stroke-opacity="1" text-rendering="geometricPrecision" transform="translate(33,104)"><line clip-path="url(#45760828-fdff-45dd-b7e2-11b3906d1a41)" fill="none" x1="50" x2="130" y1="50" y2="90"/></g></g><g data="{&quot;modelType&quot;:&quot;Association&quot;}" hyper="" model-id="connector-C1oy6vmGAqACZAjz" style="pointer-events: auto; cursor: pointer;"><g fill="black" fill-opacity="1" font-family="sans-serif" font-size="11px" image-rendering="optimizeQuality" stroke="black" stroke-linecap="butt" stroke-linejoin="round" stroke-opacity="1" text-rendering="geometricPrecision" transform="translate(21,271)"><line clip-path="url(#8afbfd99-7d88-4080-b3e8-41982bc0ff0a)" fill="none" x1="50" x2="152" y1="50" y2="50"/></g></g><g fill="black" fill-opacity="1" font-family="sans-serif" font-size="11px" image-rendering="optimizeQuality" stroke="black" stroke-opacity="1" text-rendering="geometricPrecision" transform="translate(292,47)"><text clip-path="url(#b42a9157-8083-4c30-b88f-d79dde2b5868)" stroke="none" x="65" xml:space="preserve" y="12">&lt;&lt;Extend&gt;&gt;</text><text clip-path="url(#b42a9157-8083-4c30-b88f-d79dde2b5868)" stroke="none" x="51" xml:space="preserve" y="27">(personalizações)</text><text clip-path="url(#b42a9157-8083-4c30-b88f-d79dde2b5868)" stroke="none" x="4" xml:space="preserve" y="42">[produto tem opções de modificação]</text></g><g fill="rgb(120,120,120)" fill-opacity="1" font-size="10px" image-rendering="optimizeQuality" stroke="rgb(120,120,120)" stroke-opacity="1" text-rendering="geometricPrecision" transform="rotate(-45) translate(-293.1035,0)"><text stroke="none" x="0" xml:space="preserve" y="0">    </text><text stroke="none" x="221" xml:space="preserve" y="0">    </text><text stroke="none" x="442" xml:space="preserve" y="0">    </text><text stroke="none" x="100" xml:space="preserve" y="56">    </text><text stroke="none" x="321" xml:space="preserve" y="56">    </text><text stroke="none" x="542" xml:space="preserve" y="56">    </text><text stroke="none" x="0" xml:space="preserve" y="112">    </text><text stroke="none" x="221" xml:space="preserve" y="112">    </text><text stroke="none" x="442" xml:space="preserve" y="112">    </text><text stroke="none" x="100" xml:space="preserve" y="168">    </text><text stroke="none" x="321" xml:space="preserve" y="168">    </text><text stroke="none" x="542" xml:space="preserve" y="168">    </text><text stroke="none" x="0" xml:space="preserve" y="224">    </text><text stroke="none" x="221" xml:space="preserve" y="224">    </text><text stroke="none" x="442" xml:space="preserve" y="224">    </text><text stroke="none" x="100" xml:space="preserve" y="280">    </text><text stroke="none" x="321" xml:space="preserve" y="280">    </text><text stroke="none" x="542" xml:space="preserve" y="280">    </text><text stroke="none" x="0" xml:space="preserve" y="336">    </text><text stroke="none" x="221" xml:space="preserve" y="336">    </text><text stroke="none" x="442" xml:space="preserve" y="336">    </text><text stroke="none" x="100" xml:space="preserve" y="392">    </text><text stroke="none" x="321" xml:space="preserve" y="392">    </text><text stroke="none" x="542" xml:space="preserve" y="392">    </text><text stroke="none" x="0" xml:space="preserve" y="448">    </text><text stroke="none" x="221" xml:space="preserve" y="448">    </text><text stroke="none" x="442" xml:space="preserve" y="448">    </text><text stroke="none" x="100" xml:space="preserve" y="504">    </text><text stroke="none" x="321" xml:space="preserve" y="504">    </text><text stroke="none" x="542" xml:space="preserve" y="504">    </text><text stroke="none" x="0" xml:space="preserve" y="560">    </text><text stroke="none" x="221" xml:space="preserve" y="560">    </text><text stroke="none" x="442" xml:space="preserve" y="560">    </text></g></g></svg>